<svg width="61" height="30" viewBox="0 0 61 30" fill="none" xmlns="http://www.w3.org/2000/svg">
<g clip-path="url(#clip0_3272_2)">
<path fill-rule="evenodd" clip-rule="evenodd" d="M22.266 2.63867H29.7655C30.2162 2.63867 30.5253 2.98438 30.4526 3.40672L29.8733 6.7744C29.8604 6.84943 29.8362 6.92215 29.8027 6.99085L26.1094 28.9413C26.0393 29.3585 25.6522 29.4601 25.196 29.4624L21.6061 29.4813C21.1498 29.4837 20.8702 28.9014 20.9395 28.4838L24.4173 7.5424H21.4223C20.9719 7.5424 20.6708 7.19797 20.7352 6.77435L21.2516 3.37715C21.316 2.95355 21.8154 2.63864 22.266 2.63864L22.266 2.63867Z" fill="#81FDF7"/>
<path fill-rule="evenodd" clip-rule="evenodd" d="M5.71737 24.5795H13.5835C14.0321 24.5795 14.34 24.9236 14.2676 25.3442L13.6907 28.6971C13.6184 29.1177 13.1921 29.4619 12.7435 29.4619H1.32397C1.28657 29.4619 1.25019 29.4593 1.21491 29.4547L0.685064 29.4534C0.246738 29.4523 -0.0583231 29.1071 0.00942042 28.687L1.18808 21.3797C1.19899 21.1051 1.38442 20.7457 1.58201 20.5672L11.6329 11.4864L12.1409 7.52094H8.95955L8.67559 9.27268C8.60755 9.69252 8.19532 10.0363 7.75688 10.0352L4.26152 10.0269C3.82312 10.0258 3.51779 9.68047 3.58588 9.26055C3.90506 7.29158 4.26933 5.35415 4.60493 3.40333C4.67728 2.98277 5.10356 2.63864 5.55219 2.63864H17.3482C17.7968 2.63864 18.1046 2.98277 18.0323 3.40333L16.5624 12.5618C16.4311 13.3799 16.219 13.6621 15.633 14.1497L6.10846 22.0751C6.10276 22.0798 6.09688 22.0844 6.09111 22.0889L5.71735 24.5795H5.71737Z" fill="#81FDF7"/>
<path fill-rule="evenodd" clip-rule="evenodd" d="M23.0575 1.97864H30.557C31.0077 1.97864 31.3168 2.32435 31.2441 2.74669L30.6648 6.11436C30.6519 6.18939 30.6277 6.26211 30.5942 6.33081L26.9009 28.2814C26.8308 28.6984 26.4438 28.8 25.9874 28.8023L22.3975 28.8215C21.9412 28.8238 21.6617 28.2412 21.731 27.824L25.2088 6.88238H22.2138C21.7634 6.88238 21.454 6.53672 21.5267 6.11434L22.1061 2.74666C22.1788 2.32423 22.6069 1.97861 23.0575 1.97861V1.97864Z" fill="#35A6FC"/>
<path fill-rule="evenodd" clip-rule="evenodd" d="M6.59697 23.9195H14.4631C14.9117 23.9195 15.2195 24.2636 15.1472 24.6842L14.5703 28.037C14.498 28.4576 14.0717 28.8018 13.6231 28.8018H2.20355C2.16615 28.8018 2.12977 28.7994 2.09449 28.7948L1.56465 28.7935C1.12632 28.7924 0.823647 28.4472 0.889001 28.0271L2.06767 20.4464C2.07858 20.1718 2.25989 19.8084 2.46159 19.6339L12.4542 10.9903L13.0205 6.8609H9.83915L9.55516 8.61264C9.48712 9.03248 9.07489 9.37623 8.63647 9.37519L5.14109 9.36687C4.70269 9.36581 4.39738 9.02043 4.46545 8.60051C4.78463 6.63154 5.14893 4.69411 5.48453 2.7433C5.55687 2.32273 5.98313 1.97861 6.43176 1.97861H18.2278C18.6764 1.97861 18.9842 2.32273 18.9118 2.7433L17.442 11.9018C17.3107 12.7199 17.0986 13.0021 16.5126 13.4897L6.98805 21.415C6.98233 21.4198 6.97648 21.4244 6.9707 21.4289L6.59694 23.9195H6.59697Z" fill="#35A6FC"/>
<path fill-rule="evenodd" clip-rule="evenodd" d="M25.0558 0.500031H32.5553C33.006 0.500031 33.3151 0.845678 33.2424 1.26808L32.6631 4.63575C32.6502 4.71083 32.626 4.7835 32.5925 4.8522L28.8992 26.8027C28.8291 27.2199 28.4421 27.3215 27.9857 27.3238L24.3958 27.3428C23.9395 27.3451 23.66 26.7628 23.7293 26.3452L27.2071 5.40377H24.2121C23.7616 5.40377 23.4523 5.05811 23.525 4.63573L24.1044 1.26805C24.1771 0.845616 24.6052 0.5 25.0558 0.5V0.500031Z" fill="#B588FF"/>
<path fill-rule="evenodd" clip-rule="evenodd" d="M8.6321 22.4409H16.4982C16.9468 22.4409 17.2547 22.785 17.1823 23.2055L16.6054 26.5585C16.5331 26.9791 16.1068 27.3231 15.6582 27.3231H4.23871C4.2013 27.3231 4.16492 27.3207 4.12965 27.3161L3.59978 27.3148C3.16143 27.3137 2.86105 26.969 2.92414 26.5484L4.10281 18.6946C4.11372 18.42 4.29736 18.0589 4.49673 17.882L14.4893 9.01983L15.0557 5.38229H10.4669L10.183 7.13403C10.1149 7.55384 9.70267 7.89832 9.26427 7.89658L7.17625 7.88826C6.73788 7.88652 6.43254 7.54182 6.5006 7.1219C6.81978 5.15296 7.18406 3.2155 7.51966 1.26469C7.592 0.844126 8.01828 0.5 8.46691 0.5H20.2629C20.7115 0.5 21.0193 0.844126 20.947 1.26469L19.4771 10.4232C19.3458 11.2413 19.1338 11.5235 18.5478 12.0111L9.02318 19.9364C9.01749 19.9412 9.01161 19.9458 9.00583 19.9502L8.63207 22.4409H8.6321Z" fill="#B588FF"/>
<path fill-rule="evenodd" clip-rule="evenodd" d="M7.56324 23.2398H15.4294C15.878 23.2398 16.1858 23.5839 16.1135 24.0045L15.5366 27.3573C15.4642 27.7779 15.038 28.1221 14.5894 28.1221H3.16985C3.13244 28.1221 3.09607 28.1197 3.06077 28.1151L2.53094 28.1138C2.09258 28.1127 1.79219 27.768 1.85529 27.3474L3.03396 19.4935C3.04486 19.2189 3.22851 18.8578 3.42788 18.681L13.4205 9.81876L13.9868 6.18121H10.8054L10.5215 7.93295C10.4534 8.35279 10.0412 8.69654 9.60275 8.6955L6.10739 8.68718C5.669 8.68612 5.36366 8.34074 5.43173 7.92082C5.75093 5.95185 6.1152 4.01443 6.45081 2.06361C6.52315 1.64305 6.94943 1.29892 7.39806 1.29892H19.1941C19.6427 1.29892 19.9505 1.64305 19.8781 2.06361L18.4083 11.2221C18.277 12.0402 18.0649 12.3224 17.4789 12.81L7.95433 20.7353C7.94863 20.7401 7.94275 20.7447 7.93698 20.7492L7.56322 23.2398H7.56324Z" fill="white"/>
<path fill-rule="evenodd" clip-rule="evenodd" d="M23.9845 1.29855H31.4842C31.9346 1.29855 32.2437 1.6442 32.1712 2.0666L31.5917 5.43427C31.5788 5.50937 31.5545 5.58201 31.521 5.65072L27.8278 27.6011C27.7576 28.0184 27.3709 28.12 26.9143 28.1223L23.3246 28.1412C22.8682 28.1436 22.5887 27.5612 22.658 27.1437L26.136 6.20229H23.1408C22.6903 6.20229 22.381 5.85665 22.4537 5.43424L23.0331 2.06657C23.1058 1.64414 23.5339 1.29855 23.9845 1.29855Z" fill="white"/>
<path fill-rule="evenodd" clip-rule="evenodd" d="M35.1159 10.7108H41.0027C42.5006 10.7108 43.1539 11.2249 43.0359 12.5832C42.9882 13.131 42.9033 13.6314 42.8069 14.1718C42.6677 14.9517 42.2954 15.4406 41.5155 15.579C42.2013 15.7021 42.3648 16.4623 42.2699 17.0113L42.0118 18.5003C41.7932 19.898 41.0135 20.4371 39.4718 20.4371H33.395C32.9464 20.4371 32.6385 20.093 32.711 19.6724C32.7827 19.2563 32.8572 18.8404 32.9335 18.4247H32.0015C31.8574 18.4247 31.7181 18.3128 31.7398 18.1794L32.0252 16.4177C32.0468 16.2843 32.143 16.1724 32.2869 16.1724H33.3517C33.4339 15.7241 33.5146 15.276 33.5917 14.8283L33.6636 14.4107H32.6911C32.5473 14.4107 32.4078 14.2988 32.4295 14.1654L32.7149 12.4037C32.7365 12.2703 32.8327 12.1584 32.9765 12.1584H34.0511L34.1687 11.4754C34.2409 11.0548 34.6673 10.7107 35.1159 10.7107V10.7108ZM43.8516 18.0957H45.5096L46.413 13.0883H44.8081C44.5304 13.0883 44.2543 12.8713 44.3033 12.615L44.5689 11.2201C44.6178 10.9639 44.796 10.7469 45.0737 10.7469H51.3972C51.6749 10.7469 51.9507 10.9639 51.902 11.2201L51.6362 12.615C51.5875 12.8712 51.4091 13.0883 51.1314 13.0883H49.495L48.5916 18.0957H50.1749C50.4525 18.0957 50.7287 18.3128 50.6797 18.569L50.4141 19.9638C50.3654 20.22 50.187 20.4371 49.9093 20.4371H43.5858C43.3081 20.4371 43.0323 20.2201 43.081 19.9638L43.3468 18.569C43.3955 18.3127 43.5739 18.0957 43.8516 18.0957ZM58.1967 13.0883L56.9978 19.6769C56.9269 20.0671 56.5283 20.3865 56.1122 20.3865H54.5439C54.1278 20.3865 53.8447 20.0671 53.9158 19.6769L55.1144 13.0883H53.4494C53.172 13.0883 52.8959 12.8713 52.9446 12.615L53.2104 11.2201C53.2592 10.9639 53.4376 10.7469 53.7152 10.7469H60.0385C60.3162 10.7469 60.5923 10.9639 60.5433 11.2201L60.2778 12.615C60.229 12.8712 60.0506 13.0883 59.773 13.0883H58.1967ZM36.6974 16.8415H39.076C39.2199 16.8415 39.3622 16.9539 39.3377 17.0867L39.1472 18.1126C39.1227 18.2454 39.0294 18.3579 38.8858 18.3579H36.5069C36.3633 18.3579 36.2207 18.2455 36.2454 18.1126L36.4357 17.0867C36.4602 16.9538 36.5533 16.8415 36.6974 16.8415ZM37.3535 13.0058H39.7322C39.876 13.0058 40.0184 13.1183 39.9939 13.2512L39.8036 14.277C39.7788 14.4098 39.6858 14.5223 39.5419 14.5223H37.1633C37.0194 14.5223 36.8768 14.4099 36.9016 14.277L37.0919 13.2512C37.1163 13.1182 37.2094 13.0058 37.3535 13.0058Z" fill="#B588FF"/>
<path fill-rule="evenodd" clip-rule="evenodd" d="M35.5666 10.0235H41.4534C42.9513 10.0235 43.6046 10.5376 43.4865 11.896C43.4389 12.4437 43.354 12.9441 43.2576 13.4845C43.1184 14.2644 42.7461 14.7533 41.9662 14.8917C42.6522 15.0148 42.8154 15.775 42.7206 16.324L42.4628 17.813C42.2439 19.2107 41.4642 19.7498 39.9225 19.7498H33.8457C33.3971 19.7498 33.0892 19.4057 33.1617 18.9851C33.2333 18.569 33.3079 18.1531 33.3842 17.7374H32.4522C32.3083 17.7374 32.1688 17.6255 32.1905 17.4921L32.4759 15.7304C32.4975 15.597 32.5937 15.4851 32.7376 15.4851H33.8024C33.8846 15.0368 33.9653 14.5887 34.0424 14.141L34.1143 13.7234H33.1418C32.998 13.7234 32.8585 13.6115 32.8801 13.4781L33.1655 11.7164C33.1872 11.583 33.2834 11.4711 33.4272 11.4711H34.5018L34.6194 10.7881C34.6916 10.3676 35.118 10.0234 35.5666 10.0234V10.0235ZM44.3023 17.4084H45.9603L46.8637 12.401H45.2588C44.9811 12.401 44.705 12.184 44.754 11.9277L45.0195 10.5329C45.0685 10.2766 45.2467 10.0596 45.5244 10.0596H51.8479C52.1256 10.0596 52.4014 10.2767 52.3527 10.5329L52.0869 11.9277C52.0382 12.1839 51.8597 12.401 51.5821 12.401H49.9457L49.0423 17.4084H50.6256C50.9032 17.4084 51.1794 17.6255 51.1304 17.8817L50.8648 19.2765C50.8161 19.5327 50.6377 19.7498 50.36 19.7498H44.0365C43.7591 19.7498 43.4829 19.5328 43.5317 19.2765L43.7975 17.8817C43.8462 17.6254 44.0246 17.4084 44.3023 17.4084ZM58.6473 12.401L57.4485 18.9896C57.3776 19.3798 56.979 19.6992 56.5629 19.6992H54.9946C54.5784 19.6992 54.2954 19.3798 54.3665 18.9896L55.5651 12.401H53.9001C53.6227 12.401 53.3466 12.184 53.3953 11.9277L53.6611 10.5329C53.7099 10.2766 53.8883 10.0596 54.1659 10.0596H60.4892C60.7669 10.0596 61.043 10.2767 60.994 10.5329L60.7285 11.9277C60.6797 12.1839 60.5013 12.401 60.2236 12.401H58.6473ZM37.1481 16.1542H39.5267C39.6706 16.1542 39.8129 16.2666 39.7884 16.3995L39.5981 17.4253C39.5734 17.5581 39.48 17.6706 39.3364 17.6706H36.9575C36.8139 17.6706 36.6714 17.5582 36.6961 17.4253L36.8864 16.3995C36.9109 16.2665 37.0039 16.1542 37.1481 16.1542ZM37.8042 12.3186H40.1829C40.3267 12.3186 40.469 12.431 40.4445 12.5639L40.2543 13.5897C40.2295 13.7225 40.1364 13.835 39.9926 13.835H37.6139C37.4701 13.835 37.3275 13.7226 37.3523 13.5897L37.5425 12.5639C37.567 12.4309 37.6604 12.3186 37.8042 12.3186Z" fill="white"/>
</g>
<defs>
<clipPath id="clip0_3272_2">
<rect width="61" height="29" fill="white" transform="translate(0 0.5)"/>
</clipPath>
</defs>
</svg>
