<svg width="97" height="12" viewBox="0 0 97 12" fill="none" xmlns="http://www.w3.org/2000/svg">
<path d="M2.90092 7.33068V9.29278H4.42636C5.00748 9.32916 5.51596 8.92942 5.55231 8.348V8.31166C5.55231 7.69395 5.04383 7.29424 4.28114 7.29424L2.90092 7.33068ZM2.90092 4.46015V6.20425H4.3174C4.82587 6.2406 5.29804 5.87723 5.33429 5.36854V5.29585C5.33429 4.82351 4.86215 4.46014 4.20835 4.46014L2.90092 4.46015ZM0.866943 3.29745H3.62729C4.8622 3.29745 5.29804 3.3338 5.66127 3.47912C6.35137 3.80615 6.75086 4.46017 6.75086 5.22331C6.75086 5.95 6.53296 6.31337 5.80648 6.67675C6.56923 6.93109 7.07774 7.65781 7.00514 8.45722C7.00514 9.65628 6.06076 10.4556 4.68063 10.4556H0.867037V9.2929H1.41184V4.46027H0.867037V3.29747" fill="#DDDFFF"/>
<path d="M11.6539 7.07644C11.6539 6.45873 11.1454 5.98638 10.5643 5.98638H10.528C9.91056 5.98638 9.40208 6.45873 9.29312 7.04017L11.6539 7.07644ZM13.0347 8.67516C12.7801 9.87432 11.7995 10.601 10.492 10.601C8.96653 10.601 7.84058 9.40193 7.84058 7.73047C7.84058 6.05902 8.96653 4.85995 10.492 4.85995C11.3273 4.85995 12.1264 5.25962 12.5985 5.98638C12.9618 6.60409 13.1797 7.29445 13.1433 8.02122H9.2207C9.366 9.4383 10.274 9.51103 10.5283 9.51103C11.0368 9.54742 11.509 9.18405 11.6543 8.71162L13.0344 8.67528" fill="#DDDFFF"/>
<path d="M17.5745 6.89479H20.0806V10.4556H19.2815V9.32929C19.1363 9.58356 18.9546 9.80157 18.7367 10.0196C18.2646 10.4193 17.6834 10.6374 17.1023 10.6374C15.4315 10.6374 14.124 9.00227 14.124 6.89479C14.124 4.78731 15.4315 3.11585 17.066 3.11585C17.974 3.07955 18.773 3.58824 19.2089 4.35128V3.22486H19.9716V5.51398H19.1726C19.0999 5.18696 18.9546 4.89628 18.773 4.6419C18.4098 4.16954 17.8287 3.87886 17.2476 3.84252C16.3759 3.84252 15.0684 4.6056 15.0684 6.82205C15.0684 8.56614 16.0127 9.83794 17.2476 9.83794C18.2282 9.80157 19.0273 9.07491 19.2089 8.13021C19.2452 7.94855 19.2452 7.73051 19.2452 7.54884H17.5381L17.5745 6.89479Z" fill="#DDDFFF"/>
<path d="M24.6201 7.65773L24.1119 7.73047C22.4411 7.94847 21.8963 8.23915 21.8963 8.92953C21.9327 9.54729 22.4411 9.98332 23.0223 9.98332C23.8213 9.94695 24.5114 9.36554 24.6203 8.56615L24.6201 7.65773ZM26.1818 10.492H24.6201V9.51093C24.2568 10.2014 23.5305 10.601 22.7677 10.601C21.8597 10.6736 21.0606 9.94698 20.988 9.03854V8.92955C20.988 7.87586 21.8961 7.3671 24.0753 7.14909L24.5837 7.11275V6.56772C24.5837 5.95001 24.1116 5.5503 23.3489 5.5503C22.5862 5.5503 22.1866 5.80464 22.0413 6.53135H21.206C21.2786 6.09535 21.4965 5.69564 21.8234 5.40493C22.2229 5.0779 22.7677 4.93254 23.2762 4.93254C24.4021 4.93254 25.3465 5.44127 25.3465 6.82201V9.8379H26.1092L26.1818 10.492" fill="#DDDFFF"/>
<path d="M28.4703 6.02265C28.7246 5.65929 29.1968 4.89623 30.2138 4.89623C30.9402 4.89623 31.3396 5.25959 31.4849 6.02265C31.6303 5.76831 31.7755 5.55027 31.9935 5.33227C32.3204 5.04158 32.7199 4.85988 33.1557 4.85988C33.991 4.85988 34.4632 5.40495 34.4632 6.34969V9.80151H35.2259V10.4556H33.7005V6.64036C33.7005 5.87729 33.4462 5.51393 32.9014 5.51393C31.9571 5.51393 31.4486 6.64036 31.4486 7.04002V9.80153H32.2477V10.4556H30.6496V6.53137C30.6496 5.84098 30.3954 5.55032 29.8506 5.55032C29.0152 5.55032 28.3977 6.60411 28.3977 7.11277V9.83792H29.1968V10.492H26.8359V9.83792H27.635V5.62296H26.8359V4.96891H28.4341L28.4703 6.0227" fill="#DDDFFF"/>
<path d="M37.5864 8.16649C37.5864 9.07488 38.2766 9.80158 39.1482 9.87431C40.0925 9.87431 40.6737 9.03853 40.6737 7.6941C40.6737 6.34967 40.0563 5.55025 39.1482 5.55025C38.3492 5.55025 37.5501 6.42231 37.5501 7.22171L37.5864 8.16649ZM36.061 2.97047H37.5864V6.13174C37.8044 5.73204 38.4218 4.93258 39.3662 4.93258C40.6011 4.93258 41.5453 6.20438 41.5453 7.8031C41.5453 9.29292 40.5284 10.5646 39.3662 10.5646C38.3855 10.5646 37.9133 9.91058 37.5864 9.47456V10.492H36.0247V9.83793H36.7874V3.62449H36.061V2.97044" fill="#DDDFFF"/>
<path d="M42.0114 2.97048H43.5732V9.83795H44.2996V10.492H41.9751V9.83795H42.7742V3.58824H42.0114V2.97053" fill="#DDDFFF"/>
<path d="M48.8403 7.29443C48.8403 6.78575 48.6587 6.31338 48.2955 5.91372C48.0413 5.69572 47.7143 5.55036 47.3874 5.58669C46.6974 5.62303 46.1163 6.09542 45.9347 6.7494C45.8984 6.9311 45.8258 7.11276 45.8258 7.29443L48.8403 7.29443ZM49.6393 8.96589C49.5667 9.29292 49.4214 9.54731 49.2035 9.80157C48.7677 10.3103 48.1503 10.601 47.4601 10.601C45.971 10.601 44.9177 9.43828 44.9177 7.76683C44.9177 6.16801 45.971 4.93257 47.3148 4.93257C48.6587 4.93257 49.7483 5.98636 49.7483 7.9121H45.7894C45.862 8.71148 46.0437 9.1839 46.4068 9.54729C46.6974 9.80155 47.0606 9.94696 47.4238 9.94696C48.0413 9.94696 48.4408 9.6563 48.7313 9.00217L49.6393 8.96586" fill="#DDDFFF"/>
<path d="M53.9613 4.64194L53.0171 7.83948H54.9056L53.9613 4.64194ZM53.0897 3.2975H54.833L56.8306 9.32929H57.3754V10.492H55.7411L55.2689 8.92954H52.7264L52.2542 10.492H50.5835V9.32929H51.1284L53.0897 3.2975Z" fill="#DDDFFF"/>
<path d="M57.3025 5.00531H59.4817V6.0591H58.9369L59.6996 9.293L60.6076 5.0054H62.0241L62.9321 9.22037L63.6585 6.0591H63.1137V5.00531H65.2929V6.0591H64.8208L63.6585 10.4557H62.2057L61.2977 6.67686L60.426 10.4557H58.9732L57.7746 6.0591H57.3025V5.00531Z" fill="#DDDFFF"/>
<path d="M69.1433 7.91221C67.8715 8.02112 67.0364 8.13022 67.0364 8.89317C67.0364 9.32929 67.3995 9.61994 67.9443 9.61994C68.5982 9.61994 69.143 9.11129 69.1793 8.45724V8.42089V7.91221H69.1433ZM70.4508 9.4383H70.9229V10.492H69.2159V9.83793C68.8163 10.3466 68.1989 10.601 67.5451 10.601C66.4555 10.601 65.6201 9.87431 65.6201 8.89314C65.6201 7.29442 67.4362 7.11278 69.1795 6.9674C69.1795 6.13166 68.889 5.87734 68.1989 5.87734C67.5088 5.87734 67.2546 6.20436 67.2183 6.71305V6.74939L65.9107 6.71305C65.9833 5.62299 66.855 4.93259 68.1625 4.93259C69.6881 4.93259 70.487 5.62298 70.487 6.85842L70.4508 9.4383Z" fill="#DDDFFF"/>
<path d="M73.4981 5.87736C73.8613 5.18701 74.2608 4.89631 74.8782 4.89631C75.0961 4.89631 75.2778 4.93261 75.4957 4.96896V6.24076C75.2778 6.20441 75.0599 6.16807 74.8419 6.16807C74.1518 6.13177 73.5707 6.64046 73.5344 7.2945V9.40198H74.1882V10.4557H71.6458V9.40198H72.1906V6.05907H71.6458V5.00528H73.4981V5.87734" fill="#DDDFFF"/>
<path d="M79.5631 7.07644C79.5631 6.45873 79.0546 5.98638 78.4735 5.98638H78.4371C77.8197 5.98638 77.3112 6.45873 77.2022 7.04017L79.5631 7.07644ZM80.9795 8.67516C80.7259 9.87432 79.7453 10.601 78.4378 10.601C76.9123 10.601 75.7864 9.40193 75.7864 7.73047C75.7864 6.05902 76.9123 4.85995 78.4378 4.85995C79.2732 4.85995 80.0722 5.25962 80.5444 5.98638C80.9076 6.60409 81.1255 7.29445 81.0892 8.02122H77.1666C77.3118 9.4383 78.2198 9.51103 78.4741 9.51103C78.9826 9.54742 79.4548 9.18405 79.6001 8.71162L80.9802 8.67528" fill="#DDDFFF"/>
<path d="M94.9762 2.44573C95.0279 2.4368 95.073 2.42017 95.1115 2.39527C95.15 2.37046 95.181 2.3371 95.2045 2.2949C95.227 2.25299 95.2393 2.19877 95.2393 2.13167C95.2393 2.03901 95.2129 1.96346 95.1613 1.90529C95.1106 1.84703 95.027 1.81799 94.9124 1.81799H94.3054V2.45851H94.8147C94.871 2.45851 94.9255 2.45419 94.9762 2.44573ZM94.9255 1.61209C95.1002 1.61209 95.2364 1.65476 95.3351 1.74065C95.4337 1.82644 95.4825 1.94391 95.4825 2.09295C95.4825 2.20478 95.4581 2.30233 95.4074 2.38643C95.3567 2.47054 95.2759 2.52805 95.1641 2.55887V2.56385C95.2176 2.57419 95.2609 2.5912 95.2947 2.61526C95.3275 2.6395 95.3538 2.66817 95.3736 2.70153C95.3933 2.73489 95.4083 2.77219 95.4177 2.81336C95.4271 2.85452 95.4346 2.89737 95.4393 2.9421C95.4431 2.98683 95.445 3.03231 95.4468 3.07836C95.4487 3.12488 95.4534 3.17027 95.46 3.21472C95.4666 3.25935 95.4769 3.30202 95.4901 3.34205C95.5023 3.38255 95.522 3.41798 95.5474 3.4489H95.2749C95.258 3.43001 95.2458 3.40417 95.2402 3.37184C95.2336 3.33923 95.2299 3.30267 95.2289 3.26217C95.227 3.22214 95.2252 3.17882 95.2233 3.1323C95.2214 3.08616 95.2167 3.04077 95.2083 2.99604C95.2007 2.9514 95.1923 2.90911 95.182 2.86871C95.1716 2.82858 95.1556 2.79343 95.1331 2.76327C95.1115 2.7331 95.0814 2.70933 95.0457 2.69128C95.0101 2.67315 94.9621 2.66431 94.902 2.66431H94.3054V3.4489H94.061V1.61209H94.9255Z" fill="#DDDFFF"/>
<path d="M94.7442 1.10574C93.9232 1.10574 93.255 1.77406 93.255 2.59545C93.255 3.41694 93.9232 4.08526 94.7442 4.08526C95.5649 4.08526 96.2337 3.41693 96.2337 2.59545C96.2337 1.77406 95.5649 1.10574 94.7442 1.10574ZM94.7442 4.37592C93.763 4.37592 92.9646 3.57715 92.9646 2.59545C92.9646 1.61384 93.763 0.815084 94.7442 0.815084C95.7255 0.815084 96.5239 1.61384 96.5239 2.59545C96.5239 3.57716 95.7255 4.37592 94.7442 4.37592Z" fill="#DDDFFF"/>
<path d="M81.7405 9.77225H82.4192V10.4366H81.7405V9.77225Z" fill="#DDDFFF"/>
<path d="M84.8055 10.0351C85.5498 10.0351 85.9949 9.4365 85.9949 8.45103C85.9949 7.52399 85.5278 6.93266 84.8055 6.93266C84.0977 6.93266 83.6599 7.52401 83.6599 8.48026C83.6599 9.4584 84.0904 10.0351 84.8055 10.0351ZM83.0251 8.4656C83.0251 7.26851 83.7621 6.44354 84.8274 6.44354C85.8709 6.44354 86.6297 7.29765 86.6297 8.4656C86.6297 9.68478 85.8854 10.5242 84.8128 10.5242C83.7475 10.5242 83.0251 9.69203 83.0251 8.4656Z" fill="#DDDFFF"/>
<path d="M88.1624 7.40712C88.3522 6.99832 88.4544 6.87424 88.6294 6.70638C88.8337 6.5311 89.0891 6.43621 89.3445 6.43621C89.4393 6.43621 89.5707 6.45083 89.7677 6.48008V7.05675C89.5707 7.02023 89.454 7.00566 89.3519 7.00566C88.2865 7.00566 88.1624 8.10793 88.1624 8.16638V9.97673H88.8338V10.4366H87.0387V9.97673H87.6006V6.9691H87.0168V6.50189H88.1624V7.40709" fill="#DDDFFF"/>
<path d="M92.847 7.95469C92.847 7.52404 92.3217 6.91086 91.7234 6.91086C91.0812 6.91086 90.6871 7.4364 90.6871 8.29054C90.6871 9.15921 91.0885 9.68488 91.7598 9.68488C92.3363 9.68488 92.847 9.12274 92.847 8.66285V7.95469ZM92.847 9.47316C92.4895 9.97682 92.0955 10.1446 91.6649 10.1446C90.7237 10.1446 90.0742 9.37089 90.0742 8.25396C90.0742 7.19547 90.7091 6.44361 91.5993 6.44361C92.3217 6.44361 92.6427 6.90348 92.847 7.20283V6.50198H93.9561V6.96919H93.4088V10.1958C93.4088 11.1447 92.803 11.6849 91.7378 11.6849C91.0884 11.6849 90.5338 11.4002 90.2712 10.9403C90.2201 10.8454 90.1763 10.7505 90.1107 10.5534H90.7454C90.979 11.0279 91.2562 11.203 91.7816 11.203C92.4456 11.203 92.8469 10.86 92.8469 10.2906V9.47305" fill="#DDDFFF"/>
</svg>
