<svg width="1297" height="686" viewBox="0 0 1297 686" fill="none" xmlns="http://www.w3.org/2000/svg">
<path d="M1097.75 -459.054V-365.531V-244.116V-235.092V-150.594V-145.671V-142.39L1000.36 -92.347L903.893 -43.1246V85.6741H940.995H992.01H1097.75V179.197H992.01H903.893H798.153V85.6741V11.0201V1.99597V-82.5025V-84.9637V-91.5266L992.01 -189.971V-207.199V-278.572V-365.531H903.893V-290.877V-259.703H798.153V-290.877V-365.531V-420.496V-459.054H903.893H992.01H1097.75Z" fill="#07041C"/>
<path d="M1192.19 -459.054H1206.1H1297V179.197H1192.19V-312.207L1223.72 -328.615H1217.23H1134.68L1190.33 -459.054H1192.19Z" fill="#07041C"/>
<path d="M199.25 685.395L199.25 591.873L199.25 470.458L199.25 461.433L199.25 376.935L199.25 372.013L199.25 368.731L296.642 318.688L393.107 269.466L393.107 140.667L356.005 140.667L304.99 140.667L199.25 140.667L199.25 47.1448L304.99 47.1448L393.107 47.1448L498.847 47.1448L498.847 140.667L498.847 215.321L498.847 224.346L498.847 308.844L498.847 311.305L498.847 317.868L304.99 416.313L304.99 433.541L304.99 504.913L304.99 591.873L393.107 591.873L393.107 517.219L393.107 486.045L498.847 486.045L498.847 517.219L498.847 591.873L498.847 646.838L498.847 685.396L393.107 685.395L304.99 685.395L199.25 685.395Z" fill="#07041C"/>
<path d="M104.814 685.395L90.9008 685.395L0.00128174 685.395L0.00134497 47.1447L104.814 47.1447L104.814 538.549L73.2775 554.956L79.7703 554.956L162.322 554.956L106.669 685.395L104.814 685.395Z" fill="#07041C"/>
<rect width="149.654" height="132.052" transform="matrix(-1 0 0 1 723.326 47.1476)" fill="#07041C"/>
</svg>
