<svg width="344" height="40" viewBox="0 0 344 40" fill="none" xmlns="http://www.w3.org/2000/svg">
<g filter="url(#filter0_d_3263_1181)">
<path fill-rule="evenodd" clip-rule="evenodd" d="M48.499 18.9473V15.659H51.813C52.6666 15.659 53.4447 16.3926 53.4447 17.3031C53.4447 18.2137 52.7167 18.9473 51.813 18.9473H48.499ZM47.5873 2.63757H51.6516V4.07269H51.863C54.8758 4.07269 57.4362 6.67834 57.4362 9.7135C57.4362 11.0037 56.9594 12.1926 56.2313 13.1283C57.5118 14.1655 58.3654 15.7592 58.3654 17.4795C58.3654 20.49 55.8301 23.0447 52.8423 23.0447H51.6516V24.2387H47.5873V23.0447H43.5532V4.07269H47.5873V2.63757ZM48.499 11.4848V8.19649H50.8837C51.7874 8.19649 52.5155 8.93009 52.5155 9.84063C52.5155 10.7512 51.7874 11.4848 50.8837 11.4848H48.499Z" fill="#7E77AC"/>
</g>
<g filter="url(#filter1_d_3263_1181)">
<path fill-rule="evenodd" clip-rule="evenodd" d="M15.8529 9.67674L12.0267 14.5195L15.7788 15.942L19.7098 14.4792L15.8529 9.67674ZM15.7499 24.8559L6.52429 14.5284L6.52246 14.5276L15.7984 2.63757L25.0377 14.6035L15.7501 24.8558L15.7499 24.8559Z" fill="#7E77AC"/>
</g>
<g filter="url(#filter2_d_3263_1181)">
<path fill-rule="evenodd" clip-rule="evenodd" d="M82.516 3.88797L81.032 11.0747L78.35 11.7172L77.4978 15.9701L80.1502 15.3444L78.8236 21.7696H93.5939L94.7787 17.233H85.418L86.1681 13.9249L89.8066 13.0665L90.4696 8.81359L87.1461 9.60986L88.4471 3.87146L82.516 3.88797Z" fill="#7E77AC"/>
<path fill-rule="evenodd" clip-rule="evenodd" d="M88.3349 3.87146L87.0217 9.48813L90.3868 8.70629L89.67 13.1655L85.9639 14.0134L85.2545 17.0476H94.7787L93.507 21.7696H78.2362L79.5765 15.4744L76.8806 16.0911L77.8025 11.6299L80.5303 10.9963L82.0438 3.88844L88.3349 3.87146ZM82.2475 4.13638L80.743 11.2021L78.0162 11.8355L77.2049 15.7619L79.9032 15.1446L78.5456 21.5211H93.3141L94.452 17.2961H84.9387L85.7547 13.8062L89.4486 12.9611L90.0802 9.03278L86.6862 9.82133L88.0189 4.1208L82.2475 4.13638Z" fill="#252045"/>
</g>
<path d="M154.966 9.29441H149.09V3.87146H167.605V9.29441H161.729V13.1291H154.966V9.29441Z" fill="#7E77AC"/>
<path d="M162.051 14.9808H155.262V22.3869H162.051V14.9808Z" fill="#7E77AC"/>
<path d="M163.125 10.8106C164.311 10.9035 165.734 11.3926 166.361 11.7804C167.16 12.2735 167.605 12.8646 167.605 13.5304C167.605 14.6283 166.374 15.5305 164.384 16.1015C162.811 16.553 160.674 16.8323 158.348 16.8323C156.022 16.8323 153.885 16.553 152.311 16.1015C150.321 15.5305 149.09 14.6283 149.09 13.5304C149.09 12.7971 149.627 12.1572 150.575 11.6401C151.314 11.2374 152.343 10.9009 153.563 10.6606L153.625 12.4684C151.758 12.8367 152.08 13.7097 153.438 14.0995C154.666 14.4516 156.4 14.6698 158.348 14.6698C160.297 14.6698 162.031 14.4516 163.259 14.0995C164.906 13.6266 164.311 12.7347 163.063 12.432L163.125 10.8106H163.125Z" fill="#7E77AC"/>
<path fill-rule="evenodd" clip-rule="evenodd" d="M199.584 1.98379C198.137 2.81745 197.281 4.32327 197.281 5.91117C197.281 6.74483 197.622 7.58542 198.049 8.33486C198.391 9.00435 198.558 10.1733 197.367 10.7586C196.517 11.2575 195.405 10.9249 194.896 10.0891C194.388 9.41958 193.79 8.74956 193.022 8.25064C191.575 7.41698 189.869 7.41698 188.422 8.25064C186.975 9.0843 186.121 10.5938 186.121 12.1823C186.121 13.7707 186.971 15.276 188.421 16.1118C189.868 16.9454 191.575 16.9454 193.022 16.1118C193.79 15.6928 194.387 15.0276 194.81 14.2734C195.151 13.6881 196.089 12.9339 197.281 13.6039C198.13 14.1028 198.386 15.1939 197.963 16.0276C197.536 16.7813 197.281 17.6176 197.281 18.4513C197.281 20.0413 198.13 21.545 199.584 22.3786C201.03 23.2123 202.737 23.2123 204.184 22.3786C205.631 21.545 206.487 20.0392 206.487 18.4513C206.487 16.8634 205.635 15.3575 204.184 14.5218C203.416 14.1028 202.563 13.9365 201.627 13.9365C200.858 13.9365 199.839 13.4376 199.839 12.1823C199.839 11.178 200.608 10.4281 201.627 10.4281C202.477 10.4281 203.415 10.2618 204.184 9.8428C205.631 9.00914 206.487 7.50333 206.487 5.91543C206.487 4.32753 205.635 2.82172 204.184 1.98806C203.501 1.56909 202.651 1.40279 201.883 1.40279C201.119 1.39852 200.262 1.56909 199.584 1.98379H199.584Z" fill="#7E77AC"/>
<g filter="url(#filter3_d_3263_1181)">
<path d="M121.435 22.3872C126.48 22.3872 130.575 18.2371 130.575 13.1296C130.575 8.02208 126.48 3.87195 121.435 3.87195C118.703 3.87195 115.989 3.90679 113.294 3.90679V8.5755H114.659V17.6837H113.294V22.3208C115.97 22.3208 118.686 22.3872 121.435 22.3872V22.3872ZM119.436 8.83571H121.459C123.848 8.83571 125.798 10.808 125.798 13.2036C125.798 15.6238 123.848 17.5961 121.459 17.5961H119.436V8.83571Z" fill="#7E77AC"/>
</g>
<path d="M249.53 13.2129C249.489 13.2346 249.487 13.2803 249.467 13.315C249.341 13.5476 249.091 13.6584 248.841 13.5932C248.594 13.528 248.424 13.2998 248.433 13.0412C248.441 12.7891 248.622 12.5696 248.865 12.5217C249.124 12.4696 249.376 12.6 249.484 12.8412C249.5 12.8738 249.498 12.9151 249.53 12.939C249.53 13.0303 249.53 13.1216 249.53 13.2129Z" fill="#7E77AC"/>
<path d="M224.239 12.9914C224.254 12.9588 224.272 12.9241 224.287 12.8915C224.398 12.6546 224.643 12.5263 224.898 12.5785C225.15 12.6307 225.335 12.848 225.341 13.1023C225.345 13.3566 225.169 13.5913 224.928 13.6522C224.676 13.7152 224.426 13.6 224.302 13.3674C224.283 13.3327 224.281 13.287 224.241 13.2631C224.239 13.1718 224.239 13.0806 224.239 12.9914Z" fill="#7E77AC"/>
<path d="M231.172 13.102C231.174 12.15 231.932 11.3915 232.884 11.3915C233.827 11.3937 234.583 12.1565 234.579 13.1042C234.575 14.0604 233.818 14.7994 232.843 14.7994C231.928 14.7972 231.169 14.0278 231.172 13.102Z" fill="#7E77AC"/>
<path d="M233.179 16.5599C233.182 15.6232 233.951 14.8625 234.894 14.8647C235.835 14.8668 236.591 15.6319 236.589 16.5773C236.587 17.5184 235.822 18.2769 234.877 18.2725C233.936 18.2704 233.175 17.5032 233.179 16.5599Z" fill="#7E77AC"/>
<path d="M236.572 9.61836C236.57 10.5638 235.811 11.3201 234.866 11.3158C233.925 11.3136 233.16 10.5442 233.167 9.60532C233.173 8.66641 233.942 7.89921 234.877 7.90355C235.818 7.90573 236.576 8.67293 236.572 9.61836Z" fill="#7E77AC"/>
<path d="M237.193 16.5557C237.197 15.6125 237.965 14.8561 238.908 14.8605C239.849 14.8648 240.611 15.6364 240.603 16.5753C240.594 17.5098 239.831 18.2683 238.895 18.2662C237.958 18.2662 237.189 17.4924 237.193 16.5557Z" fill="#7E77AC"/>
<path d="M240.89 14.7782C239.973 14.7891 239.21 14.0349 239.197 13.1047C239.184 12.1615 239.925 11.3943 240.864 11.379C241.811 11.3638 242.583 12.1028 242.594 13.0373C242.607 14.0089 241.866 14.7652 240.89 14.7782Z" fill="#7E77AC"/>
<path d="M237.18 9.60482C237.18 8.66591 237.947 7.90304 238.888 7.90522C239.821 7.90739 240.583 8.6746 240.581 9.60699C240.579 10.5437 239.818 11.3066 238.884 11.3066C237.943 11.3066 237.18 10.5459 237.18 9.60482Z" fill="#7E77AC"/>
<path d="M230.926 8.66605C231.48 8.66823 231.923 9.11377 231.923 9.66581C231.921 10.2244 231.471 10.6721 230.915 10.6677C230.367 10.6612 229.92 10.2092 229.922 9.66147C229.924 9.10943 230.374 8.66388 230.926 8.66605Z" fill="#7E77AC"/>
<path d="M242.841 17.5119C242.287 17.5075 241.844 17.062 241.846 16.5099C241.848 15.9514 242.3 15.5037 242.856 15.5102C243.404 15.5167 243.852 15.9709 243.847 16.5186C243.843 17.0707 243.393 17.5162 242.841 17.5119Z" fill="#7E77AC"/>
<path d="M237.828 19.9635C237.828 20.5242 237.385 20.9676 236.826 20.9676C236.276 20.9676 235.826 20.5177 235.829 19.97C235.831 19.4114 236.27 18.9681 236.82 18.9681C237.382 18.9659 237.828 19.4049 237.828 19.9635Z" fill="#7E77AC"/>
<path d="M236.867 7.20974C236.307 7.20756 235.868 6.76636 235.868 6.20563C235.868 5.65141 236.313 5.20804 236.865 5.21021C237.421 5.21239 237.865 5.65359 237.867 6.20345C237.865 6.76636 237.424 7.21191 236.867 7.20974Z" fill="#7E77AC"/>
<path d="M230.939 17.5401C230.387 17.5379 229.942 17.0946 229.939 16.5447C229.939 15.9905 230.396 15.5341 230.946 15.5406C231.493 15.5471 231.945 16.0014 231.941 16.5469C231.937 17.0946 231.489 17.5423 230.939 17.5401Z" fill="#7E77AC"/>
<path d="M243.828 9.63133C243.828 10.1812 243.382 10.6333 242.837 10.6376C242.287 10.642 241.826 10.1834 241.826 9.63567C241.829 9.0858 242.274 8.64026 242.826 8.64026C243.382 8.64026 243.828 9.08146 243.828 9.63133Z" fill="#7E77AC"/>
<path d="M240.514 20.813C240.512 20.3436 240.887 19.9589 241.355 19.9567C241.831 19.9524 242.217 20.3327 242.22 20.8022C242.222 21.276 241.839 21.6607 241.366 21.6607C240.9 21.6585 240.518 21.2782 240.514 20.813Z" fill="#7E77AC"/>
<path d="M232.447 19.9762C232.917 19.9805 233.295 20.363 233.29 20.8281C233.286 21.2976 232.895 21.6823 232.425 21.6779C231.956 21.6736 231.582 21.2911 231.584 20.8216C231.587 20.3478 231.969 19.9718 232.447 19.9762Z" fill="#7E77AC"/>
<path d="M241.331 6.20189C240.861 6.20189 240.479 5.8259 240.477 5.35862C240.475 4.88917 240.861 4.5023 241.331 4.50013C241.802 4.49796 242.185 4.88482 242.181 5.35862C242.181 5.82807 241.805 6.20189 241.331 6.20189Z" fill="#7E77AC"/>
<path d="M227.958 13.9605C227.486 13.9584 227.11 13.5846 227.108 13.1151C227.108 12.6413 227.488 12.2588 227.962 12.261C228.438 12.2631 228.814 12.6435 228.809 13.1195C228.807 13.5932 228.431 13.9627 227.958 13.9605Z" fill="#7E77AC"/>
<path d="M245.816 12.2221C246.286 12.2265 246.664 12.6068 246.659 13.0741C246.655 13.5435 246.262 13.9326 245.797 13.9239C245.321 13.9152 244.951 13.5327 244.958 13.0567C244.967 12.5872 245.345 12.2178 245.816 12.2221Z" fill="#7E77AC"/>
<path d="M233.256 5.37578C233.253 5.84741 232.875 6.22341 232.406 6.22124C231.937 6.21906 231.558 5.83654 231.561 5.36926C231.563 4.89981 231.945 4.51946 232.412 4.52381C232.882 4.52598 233.258 4.90633 233.256 5.37578Z" fill="#7E77AC"/>
<path d="M227.38 17.9029C227.769 17.9007 228.086 18.2072 228.09 18.5919C228.094 18.9831 227.782 19.3047 227.39 19.3047C227.006 19.3069 226.688 18.9918 226.686 18.6093C226.684 18.2224 226.995 17.9051 227.38 17.9029Z" fill="#7E77AC"/>
<path d="M247.109 18.5617C247.109 18.9442 246.796 19.2593 246.412 19.2637C246.023 19.268 245.703 18.9485 245.708 18.5595C245.71 18.177 246.027 17.864 246.412 17.864C246.796 17.864 247.109 18.177 247.109 18.5617Z" fill="#7E77AC"/>
<path d="M226.66 7.61213C226.66 7.22961 226.975 6.91664 227.36 6.91447C227.745 6.9123 228.057 7.22526 228.062 7.60995C228.064 7.99682 227.745 8.31631 227.356 8.31413C226.969 8.31196 226.658 7.99899 226.66 7.61213Z" fill="#7E77AC"/>
<path d="M236.841 24.7751C236.457 24.7773 236.137 24.4621 236.137 24.0818C236.137 23.6928 236.457 23.3711 236.841 23.3711C237.219 23.3733 237.537 23.6928 237.539 24.0753C237.543 24.4556 237.226 24.7729 236.841 24.7751Z" fill="#7E77AC"/>
<path d="M237.558 2.09602C237.558 2.48506 237.239 2.80672 236.854 2.80672C236.476 2.80672 236.159 2.48506 236.154 2.10254C236.15 1.7222 236.467 1.40488 236.852 1.40271C237.239 1.40271 237.558 1.71568 237.558 2.09602Z" fill="#7E77AC"/>
<path d="M246.379 8.27473C245.99 8.27255 245.677 7.96393 245.677 7.58141C245.677 7.18803 245.99 6.87723 246.383 6.87941C246.772 6.88158 247.083 7.19455 247.081 7.57924C247.076 7.96611 246.766 8.2769 246.379 8.27473Z" fill="#7E77AC"/>
<path d="M243.456 2.59589C243.458 2.89799 243.211 3.14793 242.908 3.15228C242.604 3.15445 242.359 2.90234 242.361 2.5872C242.363 2.28509 242.6 2.04819 242.904 2.04602C243.202 2.04602 243.454 2.29596 243.456 2.59589Z" fill="#7E77AC"/>
<path d="M231.363 2.61776C231.365 2.92421 231.124 3.17197 230.822 3.17632C230.524 3.18067 230.27 2.93073 230.265 2.62862C230.261 2.32218 230.502 2.07441 230.808 2.07224C231.115 2.07224 231.36 2.31131 231.363 2.61776Z" fill="#7E77AC"/>
<path d="M243.504 23.567C243.5 23.8712 243.247 24.1125 242.943 24.1038C242.635 24.0951 242.398 23.8473 242.406 23.5409C242.415 23.2344 242.665 22.9932 242.967 22.9997C243.267 23.0084 243.508 23.2627 243.504 23.567Z" fill="#7E77AC"/>
<path d="M231.406 23.58C231.404 23.8777 231.152 24.1255 230.852 24.1255C230.55 24.1233 230.309 23.8778 230.309 23.5713C230.311 23.2692 230.559 23.0236 230.861 23.0258C231.163 23.0279 231.406 23.2779 231.406 23.58Z" fill="#7E77AC"/>
<path d="M231.02 39.5253C229.883 39.5253 229.016 39.2231 228.419 38.6186C227.821 38.0142 227.522 37.1603 227.522 36.0569C227.522 34.9183 227.815 34.0469 228.399 33.4424C228.984 32.831 229.854 32.5253 231.01 32.5253C231.4 32.5253 231.747 32.5569 232.053 32.6201C232.358 32.6834 232.65 32.7713 232.929 32.8837V34.6126C232.371 34.3455 231.773 34.212 231.137 34.212C230.546 34.212 230.107 34.3596 229.822 34.6548C229.536 34.9429 229.393 35.4103 229.393 36.0569C229.393 36.6894 229.542 37.1463 229.841 37.4274C230.146 37.7015 230.585 37.8385 231.156 37.8385C231.468 37.8385 231.77 37.8069 232.062 37.7436C232.361 37.6804 232.657 37.582 232.949 37.4485V39.1879C232.67 39.2933 232.374 39.3742 232.062 39.4304C231.757 39.4936 231.41 39.5253 231.02 39.5253Z" fill="#7E77AC"/>
<path d="M233.25 39.4198L235.656 32.6307H237.595L240.001 39.4198H238.092L237.566 37.9756H235.676L235.159 39.4198H233.25ZM235.919 36.5524H237.322L236.621 34.5599L235.919 36.5524Z" fill="#7E77AC"/>
<path d="M240.685 39.4198V32.6307H243.948C244.462 32.6307 244.88 32.7326 245.205 32.9364C245.536 33.1402 245.783 33.4249 245.946 33.7903C246.108 34.1488 246.189 34.5669 246.189 35.0448C246.189 35.5017 246.082 35.9058 245.868 36.2572C245.66 36.6016 245.381 36.8651 245.03 37.0479C245.101 37.1111 245.163 37.1884 245.215 37.2798C245.267 37.3641 245.325 37.4836 245.39 37.6382L246.111 39.4198H244.202L243.539 37.7858C243.487 37.6593 243.422 37.5715 243.344 37.5223C243.273 37.466 243.169 37.4379 243.033 37.4379H242.516V39.4198H240.685ZM242.516 35.9198H243.481C243.747 35.9198 243.952 35.8461 244.095 35.6985C244.244 35.5438 244.319 35.326 244.319 35.0448C244.319 34.4475 244.059 34.1488 243.539 34.1488H242.516V35.9198Z" fill="#7E77AC"/>
<path d="M187.522 39.5253L189.798 35.9818L187.609 32.5253H189.75L190.879 34.3622L192.017 32.5253H194.159L191.969 35.9818L194.245 39.5253H192.074L190.879 37.6231L189.693 39.5253H187.522Z" fill="#7E77AC"/>
<path d="M194.726 39.5253V32.5253H197.93C198.433 32.5253 198.845 32.6303 199.163 32.8405C199.488 33.0506 199.731 33.3441 199.89 33.7209C200.049 34.0905 200.129 34.5216 200.129 35.0144C200.129 35.4854 200.024 35.9021 199.813 36.2644C199.609 36.6195 199.335 36.8912 198.991 37.0796C199.061 37.1448 199.122 37.2245 199.173 37.3187C199.224 37.4057 199.281 37.5289 199.345 37.6883L200.053 39.5253H198.178L197.528 37.8405C197.477 37.7101 197.413 37.6195 197.337 37.5687C197.267 37.5108 197.165 37.4818 197.031 37.4818H196.524V39.5253H194.726ZM196.524 35.9166H197.471C197.732 35.9166 197.933 35.8405 198.073 35.6883C198.22 35.5289 198.293 35.3043 198.293 35.0144C198.293 34.3985 198.038 34.0905 197.528 34.0905H196.524V35.9166Z" fill="#7E77AC"/>
<path d="M200.796 39.5253V32.5253H203.971C204.474 32.5253 204.889 32.6412 205.214 32.8731C205.545 33.0977 205.791 33.4057 205.95 33.797C206.109 34.1883 206.189 34.6231 206.189 35.1014C206.189 35.5941 206.097 36.0325 205.912 36.4166C205.727 36.8006 205.466 37.1014 205.128 37.3187C204.79 37.5361 204.391 37.6448 203.932 37.6448H202.594V39.5253H200.796ZM202.594 36.0796H203.521C203.802 36.0796 204.009 35.989 204.143 35.8079C204.283 35.6267 204.353 35.3912 204.353 35.1014C204.353 34.7898 204.289 34.5434 204.162 34.3622C204.034 34.1811 203.837 34.0905 203.569 34.0905H202.594V36.0796Z" fill="#7E77AC"/>
<path d="M149.61 39.5253C149.003 39.5253 148.466 39.4234 148 39.2195C147.541 39.0087 147.18 38.703 146.917 38.3024C146.654 37.8947 146.522 37.3958 146.522 36.8054V32.6307H148.426V36.5945C148.426 37.4239 148.82 37.8385 149.61 37.8385C149.988 37.8385 150.278 37.7366 150.48 37.5328C150.683 37.329 150.784 37.0162 150.784 36.5945V32.6307H152.687V36.8054C152.687 37.3958 152.556 37.8947 152.292 38.3024C152.036 38.703 151.675 39.0087 151.209 39.2195C150.75 39.4234 150.217 39.5253 149.61 39.5253Z" fill="#7E77AC"/>
<path d="M155.688 39.5253C155.25 39.5253 154.835 39.4901 154.443 39.4198C154.052 39.3425 153.718 39.2371 153.441 39.1036V37.4695C153.745 37.6171 154.082 37.7366 154.453 37.828C154.824 37.9193 155.172 37.965 155.496 37.965C155.833 37.965 156.086 37.9369 156.255 37.8807C156.431 37.8174 156.518 37.6804 156.518 37.4695C156.518 37.322 156.468 37.206 156.366 37.1217C156.272 37.0373 156.12 36.96 155.911 36.8897C155.708 36.8194 155.442 36.7316 155.111 36.6262C154.673 36.4786 154.325 36.3169 154.069 36.1412C153.812 35.9655 153.627 35.7512 153.512 35.4982C153.404 35.2451 153.35 34.9359 153.35 34.5704C153.35 33.9028 153.576 33.3968 154.028 33.0524C154.487 32.701 155.165 32.5253 156.063 32.5253C156.42 32.5253 156.788 32.5569 157.166 32.6201C157.551 32.6834 157.861 32.7537 158.097 32.831V34.4756C157.78 34.342 157.477 34.2472 157.186 34.1909C156.896 34.1347 156.623 34.1066 156.366 34.1066C156.069 34.1066 155.816 34.1312 155.607 34.1804C155.398 34.2296 155.293 34.3561 155.293 34.5599C155.293 34.7356 155.381 34.8656 155.557 34.95C155.739 35.0273 156.059 35.1292 156.518 35.2557C157.051 35.4033 157.456 35.5825 157.733 35.7933C158.016 36.0042 158.209 36.2502 158.31 36.5313C158.411 36.8054 158.462 37.1181 158.462 37.4695C158.462 38.088 158.232 38.587 157.774 38.9665C157.315 39.339 156.62 39.5253 155.688 39.5253Z" fill="#7E77AC"/>
<path d="M159.167 39.4198V32.6307H162.083C162.751 32.6307 163.321 32.7467 163.793 32.9786C164.266 33.2035 164.627 33.5689 164.877 34.075C165.126 34.574 165.251 35.2381 165.251 36.0674C165.251 37.2341 164.978 38.0845 164.431 38.6186C163.885 39.1528 163.102 39.4198 162.083 39.4198H159.167ZM161.07 37.9018H161.84C162.157 37.9018 162.423 37.8561 162.639 37.7647C162.855 37.6663 163.021 37.4871 163.135 37.2271C163.25 36.96 163.308 36.5735 163.308 36.0674C163.308 35.5614 163.254 35.1714 163.146 34.8973C163.044 34.6161 162.886 34.4229 162.67 34.3174C162.454 34.205 162.177 34.1488 161.84 34.1488H161.07V37.9018Z" fill="#7E77AC"/>
<path d="M167.287 39.4198V34.1066H165.455V32.6307H171.022V34.1066H169.19V39.4198H167.287Z" fill="#7E77AC"/>
<path d="M109.522 39.4198V32.6307H112.324C112.966 32.6307 113.515 32.7467 113.969 32.9786C114.423 33.2035 114.77 33.5689 115.01 34.075C115.25 34.574 115.37 35.2381 115.37 36.0674C115.37 37.2341 115.107 38.0845 114.581 38.6186C114.056 39.1528 113.304 39.4198 112.324 39.4198H109.522ZM111.351 37.9018H112.091C112.396 37.9018 112.652 37.8561 112.859 37.7647C113.067 37.6663 113.226 37.4871 113.336 37.2271C113.446 36.96 113.502 36.5735 113.502 36.0674C113.502 35.5614 113.45 35.1714 113.346 34.8973C113.249 34.6161 113.096 34.4229 112.889 34.3174C112.681 34.205 112.415 34.1488 112.091 34.1488H111.351V37.9018Z" fill="#7E77AC"/>
<path d="M119.056 39.5253C118.018 39.5253 117.224 39.2512 116.672 38.703C116.127 38.1548 115.855 37.2692 115.855 36.0464C115.855 35.203 115.978 34.5248 116.225 34.0117C116.471 33.4916 116.831 33.1156 117.305 32.8837C117.785 32.6447 118.368 32.5253 119.056 32.5253C119.743 32.5253 120.324 32.6447 120.797 32.8837C121.277 33.1156 121.64 33.4916 121.887 34.0117C122.133 34.5248 122.257 35.203 122.257 36.0464C122.257 37.2692 121.981 38.1548 121.43 38.703C120.878 39.2512 120.087 39.5253 119.056 39.5253ZM119.056 37.8385C119.523 37.8385 119.86 37.698 120.068 37.4168C120.282 37.1287 120.389 36.6719 120.389 36.0464C120.389 35.3787 120.282 34.9078 120.068 34.6337C119.86 34.3526 119.523 34.212 119.056 34.212C118.589 34.212 118.248 34.3526 118.034 34.6337C117.827 34.9078 117.723 35.3787 117.723 36.0464C117.723 36.6719 117.827 37.1287 118.034 37.4168C118.248 37.698 118.589 37.8385 119.056 37.8385Z" fill="#7E77AC"/>
<path d="M126.168 39.5253C125.052 39.5253 124.202 39.2301 123.619 38.6397C123.035 38.0423 122.743 37.1919 122.743 36.0885C122.743 34.95 123.045 34.0715 123.648 33.453C124.251 32.8345 125.133 32.5253 126.294 32.5253C126.683 32.5253 127.034 32.5499 127.345 32.5991C127.663 32.6483 127.961 32.7221 128.24 32.8204V34.5177C127.955 34.3983 127.659 34.3174 127.355 34.2753C127.05 34.2331 126.738 34.212 126.421 34.212C125.817 34.212 125.363 34.3596 125.059 34.6548C124.76 34.95 124.611 35.4279 124.611 36.0885C124.611 36.707 124.741 37.1533 125 37.4274C125.266 37.7015 125.655 37.8385 126.168 37.8385C126.336 37.8385 126.495 37.828 126.644 37.8069C126.794 37.7788 126.933 37.7436 127.063 37.7015V36.7105H125.817V35.4876H128.59V38.9033C128.35 39.0649 128.029 39.209 127.627 39.3355C127.231 39.462 126.745 39.5253 126.168 39.5253Z" fill="#7E77AC"/>
<path d="M129.275 39.4198V32.6307H134.022V34.1488H131.104V35.2557H133.662V36.7948H131.104V37.9018H134.022V39.4198H129.275Z" fill="#7E77AC"/>
<path d="M78.5225 39.4198V32.6307H80.3918V37.9018H83.2755V39.4198H78.5225Z" fill="#7E77AC"/>
<path d="M84.2845 39.4198V34.1066H82.4847V32.6307H87.9537V34.1066H86.1539V39.4198H84.2845Z" fill="#7E77AC"/>
<path d="M91.7203 39.5253C90.5602 39.5253 89.6753 39.2231 89.0654 38.6186C88.4555 38.0142 88.1506 37.1603 88.1506 36.0569C88.1506 34.9183 88.4489 34.0469 89.0455 33.4424C89.6421 32.831 90.5304 32.5253 91.7104 32.5253C92.1081 32.5253 92.4628 32.5569 92.7743 32.6201C93.0859 32.6834 93.3842 32.7713 93.6692 32.8837V34.6126C93.0991 34.3455 92.4893 34.212 91.8396 34.212C91.2364 34.212 90.7889 34.3596 90.4973 34.6548C90.2056 34.9429 90.0597 35.4103 90.0597 36.0569C90.0597 36.6894 90.2122 37.1463 90.5171 37.4274C90.8287 37.7015 91.2762 37.8385 91.8595 37.8385C92.1777 37.8385 92.486 37.8069 92.7843 37.7436C93.0892 37.6804 93.3908 37.582 93.6891 37.4485V39.1879C93.4041 39.2933 93.1025 39.3742 92.7843 39.4304C92.4727 39.4936 92.1181 39.5253 91.7203 39.5253Z" fill="#7E77AC"/>
<path d="M41.5225 39.6669V32.8778H45.2544C45.9431 32.8778 46.4667 33.0394 46.8252 33.3627C47.1836 33.686 47.3628 34.1498 47.3628 34.7543C47.3628 35.1057 47.2961 35.4009 47.1625 35.6398C47.036 35.8788 46.8673 36.0685 46.6565 36.2091C46.9446 36.3215 47.1731 36.4867 47.3417 36.7046C47.5174 36.9154 47.6053 37.2317 47.6053 37.6534C47.6053 38.2929 47.4085 38.7884 47.0149 39.1398C46.6214 39.4912 46.0626 39.6669 45.3387 39.6669H41.5225ZM43.4306 35.5871H44.7167C45.2017 35.5871 45.4441 35.3692 45.4441 34.9335C45.4441 34.7156 45.3844 34.5505 45.2649 34.438C45.1525 34.3256 44.9522 34.2693 44.664 34.2693H43.4306V35.5871ZM43.4306 38.2859H44.8011C45.0681 38.2859 45.2649 38.2297 45.3914 38.1172C45.5179 38.0048 45.5812 37.8185 45.5812 37.5585C45.5812 37.3406 45.5179 37.1755 45.3914 37.063C45.2649 36.9506 45.0541 36.8943 44.7589 36.8943H43.4306V38.2859Z" fill="#7E77AC"/>
<path d="M49.5669 39.6669V34.3537H47.6587V32.8778H53.4569V34.3537H51.5488V39.6669H49.5669Z" fill="#7E77AC"/>
<path d="M57.4504 39.7723C56.2204 39.7723 55.2822 39.4701 54.6356 38.8657C53.989 38.2613 53.6657 37.4074 53.6657 36.304C53.6657 35.1654 53.982 34.2939 54.6145 33.6895C55.247 33.0781 56.1888 32.7723 57.4398 32.7723C57.8615 32.7723 58.2375 32.804 58.5678 32.8672C58.8981 32.9305 59.2144 33.0183 59.5166 33.1308V34.8597C58.9122 34.5926 58.2656 34.4591 57.5769 34.4591C56.9373 34.4591 56.4629 34.6067 56.1537 34.9019C55.8444 35.19 55.6898 35.6574 55.6898 36.304C55.6898 36.9365 55.8515 37.3933 56.1748 37.6744C56.5051 37.9485 56.9795 38.0856 57.5979 38.0856C57.9353 38.0856 58.2621 38.054 58.5784 37.9907C58.9017 37.9275 59.2214 37.8291 59.5377 37.6955V39.435C59.2355 39.5404 58.9157 39.6212 58.5784 39.6775C58.248 39.7407 57.872 39.7723 57.4504 39.7723Z" fill="#7E77AC"/>
<path d="M7.52246 39.5253V32.5253H12.1962V34.0905H9.32299V35.2318H11.8418V36.8187H9.32299V37.9601H12.1962V39.5253H7.52246Z" fill="#7E77AC"/>
<path d="M14.1198 39.5253V34.047H12.3863V32.5253H17.6538V34.047H15.9203V39.5253H14.1198Z" fill="#7E77AC"/>
<path d="M18.1286 39.5253V32.5253H19.9291V35.134H22.0553V32.5253H23.8558V39.5253H22.0553V36.9166H19.9291V39.5253H18.1286Z" fill="#7E77AC"/>
<path d="M269.13 13.5219L266.59 16.0637L264.052 13.5219L266.59 10.9801L269.13 13.5219ZM275.287 7.34985L279.636 11.7079L282.174 9.16606L275.287 2.26843L268.401 9.16606L270.939 11.7079L275.287 7.34985ZM283.987 10.9801L281.449 13.5219L283.987 16.0637L286.522 13.5219L283.987 10.9801ZM275.287 19.6939L270.939 15.3381L268.401 17.8777L275.287 24.7753L282.174 17.8777L279.636 15.3381L275.287 19.6939ZM275.287 16.0637L277.825 13.5219L275.287 10.9801L272.75 13.5219L275.287 16.0637Z" fill="#7E77AC"/>
<path d="M265.522 39.5253V32.5253H269.33C270.054 32.5253 270.599 32.6919 270.964 33.0253C271.338 33.3586 271.524 33.8296 271.524 34.4383C271.524 34.8079 271.45 35.1195 271.3 35.3731C271.159 35.6195 270.968 35.8115 270.729 35.9492C271.058 36.0651 271.315 36.2354 271.502 36.4601C271.689 36.6847 271.782 37.0216 271.782 37.4709C271.782 38.1376 271.58 38.6485 271.177 39.0035C270.774 39.3514 270.196 39.5253 269.442 39.5253H265.522ZM267.325 35.3731H268.792C269.106 35.3731 269.333 35.3043 269.475 35.1666C269.617 35.0289 269.688 34.8369 269.688 34.5905C269.688 34.3224 269.617 34.1231 269.475 33.9927C269.333 33.855 269.076 33.7861 268.703 33.7861H267.325V35.3731ZM267.325 38.2753H268.971C269.3 38.2753 269.542 38.2101 269.699 38.0796C269.863 37.9492 269.946 37.7173 269.946 37.384C269.946 37.1158 269.867 36.9166 269.71 36.7861C269.554 36.6485 269.285 36.5796 268.904 36.5796H267.325V38.2753Z" fill="#7E77AC"/>
<path d="M272.696 39.5253V32.5253H274.241L277.309 36.7101V32.5253H279.123V39.5253H277.567L274.499 35.3514V39.5253H272.696Z" fill="#7E77AC"/>
<path d="M280.263 39.5253V32.5253H284.07C284.794 32.5253 285.339 32.6919 285.705 33.0253C286.078 33.3586 286.265 33.8296 286.265 34.4383C286.265 34.8079 286.19 35.1195 286.041 35.3731C285.899 35.6195 285.709 35.8115 285.47 35.9492C285.798 36.0651 286.056 36.2354 286.243 36.4601C286.429 36.6847 286.522 37.0216 286.522 37.4709C286.522 38.1376 286.321 38.6485 285.918 39.0035C285.515 39.3514 284.936 39.5253 284.182 39.5253H280.263ZM282.066 35.3731H283.533C283.846 35.3731 284.074 35.3043 284.216 35.1666C284.358 35.0289 284.429 34.8369 284.429 34.5905C284.429 34.3224 284.358 34.1231 284.216 33.9927C284.074 33.855 283.816 33.7861 283.443 33.7861H282.066V35.3731ZM282.066 38.2753H283.712C284.04 38.2753 284.283 38.2101 284.44 38.0796C284.604 37.9492 284.686 37.7173 284.686 37.384C284.686 37.1158 284.608 36.9166 284.451 36.7861C284.294 36.6485 284.025 36.5796 283.645 36.5796H282.066V38.2753Z" fill="#7E77AC"/>
<path fill-rule="evenodd" clip-rule="evenodd" d="M307.406 5.23764H305.358C304.344 5.23764 303.522 6.05923 303.522 7.07272V18.542C303.522 19.5555 304.344 20.377 305.358 20.377H309.563L305.768 6.2121L307.54 5.73714L307.406 5.23764ZM314.829 20.377H313.363L313.115 19.451L311.342 19.926L308.015 7.50969L309.788 7.03474L309.424 5.677L311.064 5.23764H311.206L311.56 6.55979L312.447 6.32231L312.156 5.23764H314.056L314.226 5.87358C316.173 5.58989 318.128 6.78169 318.622 8.62439C318.821 9.36943 318.75 10.1317 318.497 10.8143C318.463 10.9053 318.426 10.9949 318.386 11.0829C318.477 11.1205 318.567 11.1614 318.655 11.2054C319.599 11.6767 320.351 12.5046 320.627 13.5344C321.155 15.5046 319.847 17.6472 317.777 18.2018L317.546 18.2637L317.892 19.5563L316.12 20.0313L315.774 18.7386L314.887 18.9761L315.234 20.2687L314.829 20.377ZM320.012 20.377H322.791C323.804 20.377 324.626 19.5555 324.626 18.542V7.07272C324.626 6.05923 323.804 5.23764 322.791 5.23764H318.436C319.361 5.95126 320.072 6.94575 320.394 8.14944C320.584 8.85867 320.613 9.56465 320.523 10.2332C321.397 10.9311 322.087 11.8929 322.4 13.0594C323.067 15.5496 321.839 18.0797 319.735 19.3437L320.012 20.377ZM313.473 14.1743L314.05 16.3264L316.346 15.7112C316.972 15.5435 317.347 14.9282 317.188 14.3323C317.028 13.7364 316.36 13.4007 315.769 13.5592L313.473 14.1743ZM314.393 10.9999C314.434 10.989 314.474 10.9762 314.512 10.9616C315.066 10.7522 315.384 10.1781 315.235 9.62098C315.086 9.06383 314.523 8.72605 313.939 8.82155C313.898 8.82819 313.857 8.83693 313.817 8.84784L312.164 9.2905L312.741 11.4425L314.393 10.9999Z" fill="#7E77AC"/>
<path fill-rule="evenodd" clip-rule="evenodd" d="M311.196 5.20225L309.424 5.67721L309.788 7.03494L308.015 7.50989L311.342 19.9262L313.115 19.4513L313.461 20.7439L315.234 20.2689L314.887 18.9763L315.773 18.7388L316.12 20.0315L317.892 19.5565L317.546 18.2639L317.777 18.202C319.847 17.6474 321.155 15.5048 320.627 13.5346C320.326 12.4087 319.455 11.5242 318.386 11.0831C318.726 10.3356 318.848 9.46899 318.622 8.62459C318.128 6.78189 316.173 5.59009 314.226 5.87378L313.855 4.48982L312.083 4.96478L312.447 6.32251L311.56 6.55999L311.196 5.20225ZM314.05 16.3266L313.473 14.1746L315.769 13.5594C316.36 13.4009 317.028 13.7366 317.188 14.3325C317.347 14.9284 316.971 15.5437 316.345 15.7114L314.05 16.3266ZM312.741 11.4427L312.164 9.29071L313.816 8.84805C314.442 8.68031 315.075 9.02527 315.235 9.62118C315.395 10.2171 315.019 10.8323 314.393 11.0001L312.741 11.4427Z" fill="#7E77AC"/>
<path d="M304.109 38.3022V31.8464H307.693C308.354 31.8464 308.857 32.0001 309.201 32.3075C309.545 32.6149 309.717 33.056 309.717 33.6308C309.717 33.9649 309.653 34.2456 309.525 34.4728C309.403 34.7 309.242 34.8805 309.039 35.0141C309.316 35.1211 309.535 35.2781 309.697 35.4853C309.866 35.6858 309.95 35.9865 309.95 36.3875C309.95 36.9957 309.761 37.4668 309.383 37.801C309.005 38.1351 308.469 38.3022 307.774 38.3022H304.109ZM305.941 34.4227H307.176C307.642 34.4227 307.875 34.2155 307.875 33.8012C307.875 33.594 307.817 33.437 307.703 33.33C307.595 33.2231 307.402 33.1696 307.126 33.1696H305.941V34.4227ZM305.941 36.989H307.257C307.514 36.989 307.703 36.9355 307.824 36.8286C307.946 36.7217 308.006 36.5446 308.006 36.2973C308.006 36.0901 307.946 35.9331 307.824 35.8261C307.703 35.7192 307.5 35.6657 307.217 35.6657H305.941V36.989Z" fill="#7E77AC"/>
<path d="M314.096 38.4024C312.914 38.4024 312.013 38.1151 311.392 37.5403C310.772 36.9656 310.461 36.1536 310.461 35.1044C310.461 34.0217 310.765 33.193 311.372 32.6183C311.98 32.0369 312.884 31.7462 314.085 31.7462C314.49 31.7462 314.852 31.7762 315.169 31.8364C315.486 31.8965 315.79 31.9801 316.08 32.087V33.731C315.499 33.4771 314.878 33.3501 314.217 33.3501C313.603 33.3501 313.147 33.4904 312.85 33.7711C312.553 34.0451 312.405 34.4895 312.405 35.1044C312.405 35.7058 312.56 36.1402 312.871 36.4076C313.188 36.6682 313.643 36.7985 314.237 36.7985C314.561 36.7985 314.875 36.7684 315.179 36.7083C315.489 36.6481 315.796 36.5546 316.1 36.4276V38.0816C315.81 38.1819 315.503 38.2587 315.179 38.3122C314.862 38.3724 314.501 38.4024 314.096 38.4024Z" fill="#7E77AC"/>
<path d="M316.813 38.3022V31.8464H318.716V34.2523H320.964V31.8464H322.867V38.3022H320.964V35.8963H318.716V38.3022H316.813Z" fill="#7E77AC"/>
<defs>
<filter id="filter0_d_3263_1181" x="37.5532" y="0.637573" width="26.8123" height="33.6012" filterUnits="userSpaceOnUse" color-interpolation-filters="sRGB">
<feFlood flood-opacity="0" result="BackgroundImageFix"/>
<feColorMatrix in="SourceAlpha" type="matrix" values="0 0 0 0 0 0 0 0 0 0 0 0 0 0 0 0 0 0 127 0" result="hardAlpha"/>
<feOffset dy="4"/>
<feGaussianBlur stdDeviation="3"/>
<feComposite in2="hardAlpha" operator="out"/>
<feColorMatrix type="matrix" values="0 0 0 0 0 0 0 0 0 0 0 0 0 0 0 0 0 0 0.25 0"/>
<feBlend mode="normal" in2="BackgroundImageFix" result="effect1_dropShadow_3263_1181"/>
<feBlend mode="normal" in="SourceGraphic" in2="effect1_dropShadow_3263_1181" result="shape"/>
</filter>
<filter id="filter1_d_3263_1181" x="0.522461" y="0.637573" width="30.5154" height="34.2183" filterUnits="userSpaceOnUse" color-interpolation-filters="sRGB">
<feFlood flood-opacity="0" result="BackgroundImageFix"/>
<feColorMatrix in="SourceAlpha" type="matrix" values="0 0 0 0 0 0 0 0 0 0 0 0 0 0 0 0 0 0 127 0" result="hardAlpha"/>
<feOffset dy="4"/>
<feGaussianBlur stdDeviation="3"/>
<feComposite in2="hardAlpha" operator="out"/>
<feColorMatrix type="matrix" values="0 0 0 0 0 0 0 0 0 0 0 0 0 0 0 0 0 0 0.25 0"/>
<feBlend mode="normal" in2="BackgroundImageFix" result="effect1_dropShadow_3263_1181"/>
<feBlend mode="normal" in="SourceGraphic" in2="effect1_dropShadow_3263_1181" result="shape"/>
</filter>
<filter id="filter2_d_3263_1181" x="70.8806" y="1.87146" width="29.8982" height="29.8981" filterUnits="userSpaceOnUse" color-interpolation-filters="sRGB">
<feFlood flood-opacity="0" result="BackgroundImageFix"/>
<feColorMatrix in="SourceAlpha" type="matrix" values="0 0 0 0 0 0 0 0 0 0 0 0 0 0 0 0 0 0 127 0" result="hardAlpha"/>
<feOffset dy="4"/>
<feGaussianBlur stdDeviation="3"/>
<feComposite in2="hardAlpha" operator="out"/>
<feColorMatrix type="matrix" values="0 0 0 0 0 0 0 0 0 0 0 0 0 0 0 0 0 0 0.25 0"/>
<feBlend mode="normal" in2="BackgroundImageFix" result="effect1_dropShadow_3263_1181"/>
<feBlend mode="normal" in="SourceGraphic" in2="effect1_dropShadow_3263_1181" result="shape"/>
</filter>
<filter id="filter3_d_3263_1181" x="107.294" y="1.87195" width="29.281" height="30.5153" filterUnits="userSpaceOnUse" color-interpolation-filters="sRGB">
<feFlood flood-opacity="0" result="BackgroundImageFix"/>
<feColorMatrix in="SourceAlpha" type="matrix" values="0 0 0 0 0 0 0 0 0 0 0 0 0 0 0 0 0 0 127 0" result="hardAlpha"/>
<feOffset dy="4"/>
<feGaussianBlur stdDeviation="3"/>
<feComposite in2="hardAlpha" operator="out"/>
<feColorMatrix type="matrix" values="0 0 0 0 0 0 0 0 0 0 0 0 0 0 0 0 0 0 0.25 0"/>
<feBlend mode="normal" in2="BackgroundImageFix" result="effect1_dropShadow_3263_1181"/>
<feBlend mode="normal" in="SourceGraphic" in2="effect1_dropShadow_3263_1181" result="shape"/>
</filter>
</defs>
</svg>
