<svg width="40" height="14" viewBox="0 0 40 14" fill="none" xmlns="http://www.w3.org/2000/svg">
<path d="M7.8739 4.38425H1.4224C1.4224 4.38425 0.638571 4.31773 0.698865 5.18259V11.9503C0.698865 11.9503 0.807395 12.6277 1.65755 12.5067L7.8739 12.5188C7.8739 12.5188 8.41655 12.4765 8.50699 11.9321C8.59743 11.3878 8.50699 5.09187 8.50699 5.09187C8.50699 5.09187 8.58537 4.38425 7.8739 4.38425Z" fill="#DDDFFF"/>
<path d="M2.57408 3.81575H1.75408C1.75408 3.81575 1.69378 1.66267 3.83423 0.840147C3.83423 0.840147 5.57674 0.265589 6.6741 1.62034C7.22407 2.24151 7.59691 2.99993 7.75337 3.81575H6.75851C6.75851 3.81575 6.47513 1.85621 5.00395 1.77758C5.00395 1.77758 3.21923 1.37237 2.57408 3.81575Z" fill="#DDDFFF"/>
<path d="M5.73348 10.5714H3.51465L4.09347 8.9263L4.07539 8.20659C4.07539 8.20659 3.39406 7.86185 3.59303 7.02723C3.59303 7.02723 3.82215 6.19866 4.73259 6.34986C4.73259 6.34986 5.60686 6.5071 5.52245 7.49897C5.52245 7.49897 5.35363 8.20054 4.8773 8.21868V8.92025L5.73348 10.5714Z" fill="#422E53"/>
<path d="M10.0083 0.834091H11.0212C11.2383 0.834091 11.4071 0.888523 11.5157 0.991339C11.6242 1.09415 11.6785 1.24535 11.6785 1.43889C11.6785 1.63242 11.6182 1.79572 11.4976 1.90458C11.377 2.01345 11.1961 2.07393 10.9549 2.07393H10.6233V2.80573H10.0083V0.834091ZM10.6233 1.67476H10.768C10.8886 1.67476 10.967 1.65662 11.0152 1.61428C11.0386 1.59551 11.0573 1.57152 11.0699 1.54423C11.0825 1.51693 11.0885 1.48708 11.0876 1.45703C11.0888 1.42808 11.0841 1.39918 11.0737 1.37213C11.0633 1.34508 11.0475 1.32046 11.0273 1.29979C10.9851 1.25745 10.9067 1.23326 10.7921 1.23326H10.6233V1.67476Z" fill="#DDDFFF"/>
<path d="M12.4321 2.80574V0.8341H13.4451C13.5893 0.829669 13.7335 0.845962 13.8732 0.882484C13.9728 0.91163 14.0585 0.976111 14.1143 1.06392C14.1771 1.15866 14.2088 1.27076 14.2048 1.38447C14.2064 1.48133 14.1836 1.57703 14.1385 1.66267C14.0918 1.74278 14.0254 1.80945 13.9455 1.85621C13.8788 1.89605 13.8051 1.92274 13.7285 1.93483C13.786 1.9508 13.8409 1.97526 13.8913 2.00741C13.9257 2.04156 13.958 2.07792 13.9877 2.11627C14.0217 2.15214 14.0502 2.19291 14.0721 2.23723L14.3676 2.80574H13.6802L13.3546 2.20699C13.3277 2.14875 13.291 2.09556 13.2461 2.04974C13.2011 2.02108 13.1487 2.00636 13.0954 2.00741H13.0411V2.80574H12.4321ZM13.0411 1.63243H13.3004C13.3533 1.62951 13.4058 1.62141 13.4571 1.60824C13.4961 1.59776 13.5316 1.57685 13.5596 1.54776C13.5832 1.51411 13.5958 1.47398 13.5958 1.43285C13.5982 1.40468 13.594 1.37634 13.5835 1.35008C13.5731 1.32383 13.5566 1.3004 13.5355 1.28165C13.4656 1.24319 13.3859 1.22635 13.3064 1.23327H13.0411V1.63243Z" fill="#DDDFFF"/>
<path d="M14.8621 1.81991C14.8621 1.49937 14.9526 1.2514 15.1335 1.06997C15.3144 0.888526 15.5616 0.797806 15.8811 0.797806C16.2007 0.797806 16.46 0.888525 16.6348 1.06392C16.8097 1.23931 16.9001 1.48728 16.9001 1.80782C16.908 2.0038 16.8687 2.1988 16.7855 2.37633C16.7088 2.5217 16.5914 2.64149 16.4479 2.72106C16.2799 2.80618 16.0934 2.84776 15.9052 2.84202C15.7145 2.84813 15.5249 2.81091 15.3505 2.73316C15.2027 2.66087 15.0806 2.54474 15.0008 2.40052C14.9036 2.22294 14.8557 2.02242 14.8621 1.81991ZM15.4711 1.82596C15.4711 2.02555 15.5073 2.16465 15.5797 2.25537C15.6176 2.29739 15.6642 2.33054 15.7163 2.35249C15.7684 2.37443 15.8247 2.38464 15.8811 2.38238C15.9386 2.38554 15.996 2.37578 16.0492 2.3538C16.1024 2.33183 16.1501 2.2982 16.1886 2.25537C16.261 2.1707 16.2972 2.0195 16.2972 1.79572C16.2972 1.57195 16.2549 1.47518 16.1826 1.39051C16.1449 1.34816 16.0983 1.31477 16.0462 1.2928C15.994 1.27083 15.9376 1.26082 15.8811 1.2635C15.8255 1.26086 15.77 1.27092 15.7188 1.29292C15.6677 1.31492 15.6221 1.34829 15.5857 1.39051C15.5073 1.48123 15.4711 1.62638 15.4711 1.82596Z" fill="#DDDFFF"/>
<path d="M17.4487 0.834091H19.2937V1.32398H18.6727V2.80573H18.0637V1.32398H17.4487V0.834091Z" fill="#DDDFFF"/>
<path d="M19.9932 0.834091H21.6211V1.25745H20.6021V1.57194H21.5488V1.97111H20.6021V2.35818H21.6513V2.80573H19.9932V0.834091Z" fill="#DDDFFF"/>
<path d="M23.7132 2.00135L24.2498 2.1586C24.2181 2.29519 24.1608 2.42449 24.081 2.53962C24.0045 2.63708 23.905 2.71397 23.7916 2.7634C23.6543 2.82109 23.5061 2.84793 23.3575 2.84202C23.1776 2.84904 22.9985 2.81599 22.8329 2.74526C22.6864 2.67393 22.5646 2.56017 22.4832 2.41866C22.3774 2.23521 22.3252 2.02565 22.3324 1.81387C22.3324 1.48728 22.4229 1.23931 22.5917 1.06392C22.7605 0.888525 23.0138 0.797806 23.3273 0.797806C23.6408 0.797806 23.7735 0.852238 23.9122 0.949005C24.0648 1.06671 24.1766 1.22965 24.2317 1.4147L23.6951 1.53566C23.6809 1.48887 23.6606 1.44414 23.6348 1.4026C23.5981 1.35607 23.551 1.3188 23.4973 1.29375C23.4437 1.26871 23.3849 1.25658 23.3258 1.25834C23.2666 1.26011 23.2087 1.27571 23.1566 1.3039C23.1046 1.3321 23.0598 1.37211 23.0258 1.42075C22.9623 1.54153 22.933 1.67754 22.9414 1.81387C22.9414 2.03159 22.9776 2.18279 23.0439 2.26142C23.0769 2.30258 23.1194 2.33509 23.1677 2.35616C23.2161 2.37723 23.2687 2.38622 23.3213 2.38238C23.3698 2.38601 23.4185 2.37926 23.4643 2.36258C23.51 2.34589 23.5517 2.31966 23.5866 2.28561C23.6533 2.20387 23.697 2.10573 23.7132 2.00135Z" fill="#DDDFFF"/>
<path d="M24.8286 0.834091H26.6797V1.32398H26.0586V2.80573H25.4496V1.32398H24.8286V0.834091Z" fill="#DDDFFF"/>
<path d="M27.3792 0.834091H29.0071V1.25745H27.9881V1.57194H28.9347V1.97111H27.9881V2.35818H29.0372V2.80573H27.3792V0.834091Z" fill="#DDDFFF"/>
<path d="M29.7969 0.834096H30.7013C30.8494 0.828295 30.9972 0.852994 31.1354 0.906672C31.2416 0.954138 31.3347 1.02678 31.4067 1.11835C31.4789 1.21193 31.5322 1.31876 31.5635 1.43285C31.5951 1.55739 31.6113 1.68536 31.6117 1.81387C31.619 1.9803 31.5944 2.14658 31.5394 2.30376C31.4962 2.41458 31.4281 2.51392 31.3404 2.59406C31.2625 2.66891 31.1672 2.72297 31.0631 2.75131C30.9454 2.7854 30.8237 2.8037 30.7013 2.80574H29.7969V0.834096ZM30.4058 1.28165V2.35819H30.5566C30.6491 2.3652 30.7419 2.35071 30.8279 2.31585C30.886 2.28416 30.9309 2.23268 30.9545 2.1707C30.9891 2.05926 31.0034 1.94249 30.9967 1.82597C30.9967 1.61429 30.9666 1.47518 30.8942 1.39656C30.8219 1.31794 30.7134 1.28165 30.5566 1.28165H30.4058Z" fill="#DDDFFF"/>
<path d="M33.698 0.834098H34.8376C34.9945 0.824803 35.1492 0.874386 35.2717 0.973202C35.3212 1.01711 35.3608 1.07112 35.3878 1.13161C35.4149 1.1921 35.4287 1.25769 35.4284 1.32398C35.4314 1.43488 35.3927 1.54284 35.3199 1.62638C35.2592 1.68755 35.1848 1.73318 35.1029 1.75944C35.225 1.77807 35.3364 1.84036 35.4164 1.93483C35.4868 2.02407 35.5232 2.13559 35.5189 2.24933C35.5199 2.34496 35.4949 2.43905 35.4465 2.52149C35.3999 2.60159 35.3335 2.66826 35.2536 2.71502C35.1801 2.75202 35.1003 2.7746 35.0184 2.78155C34.9286 2.79518 34.838 2.80326 34.7471 2.80574H33.698V0.834098ZM34.313 1.60824H34.5783C34.648 1.61276 34.7174 1.59589 34.7773 1.55986C34.7961 1.54094 34.8107 1.5182 34.8201 1.49317C34.8294 1.46813 34.8333 1.44138 34.8315 1.4147C34.8328 1.38989 34.8286 1.36511 34.8192 1.34211C34.8098 1.31912 34.7955 1.29848 34.7773 1.28165C34.7177 1.24487 34.648 1.22794 34.5783 1.23326H34.313V1.60824ZM34.313 2.38238H34.6205C34.6989 2.39043 34.7776 2.37121 34.8436 2.32795C34.8654 2.3095 34.8827 2.28628 34.8942 2.26007C34.9057 2.23386 34.9111 2.20536 34.9099 2.17675C34.9097 2.1501 34.9037 2.12382 34.8922 2.09978C34.8808 2.07574 34.8642 2.05452 34.8436 2.03765C34.7776 1.99439 34.6989 1.97517 34.6205 1.98321H34.313V2.38238Z" fill="#DDDFFF"/>
<path d="M36.0615 0.834091H36.7368L37.1348 1.49937L37.5327 0.834091H38.202L37.4362 1.98321V2.80573H36.8273V1.98321L36.0615 0.834091Z" fill="#DDDFFF"/>
<path d="M38.624 1.37842H39.2089V1.92878H38.624V1.37842ZM38.624 2.26142H39.2089V2.80574H38.624V2.26142Z" fill="#DDDFFF"/>
<path d="M9.75513 5.88417H12.5106C13.0532 5.88417 13.4873 5.95675 13.825 6.1019C14.1468 6.24469 14.4299 6.46239 14.651 6.73694C14.8746 7.02311 15.0368 7.35256 15.1274 7.70461C15.2255 8.08377 15.2742 8.4741 15.2721 8.86583C15.2721 9.51296 15.1997 10.0089 15.055 10.3657C14.9186 10.7028 14.7109 11.0062 14.446 11.2548C14.2111 11.4789 13.9256 11.6428 13.614 11.7326C13.2547 11.8346 12.8839 11.8895 12.5106 11.8959H9.75513V5.88417ZM11.6122 7.24497V10.529H12.0644C12.4503 10.529 12.7276 10.4867 12.8904 10.402C13.066 10.2984 13.2019 10.1387 13.2763 9.94841C13.3668 9.73673 13.415 9.38595 13.415 8.90211C13.415 8.26708 13.3065 7.83162 13.1015 7.59575C12.8965 7.35988 12.5528 7.24497 12.0704 7.24497H11.6122Z" fill="#DDDFFF"/>
<path d="M16.1282 5.88417H18.5641L19.5047 9.5432L20.4332 5.88417H22.8691V11.8959H21.3557V7.31149L20.186 11.8959H18.8113L17.6416 7.31149V11.8959H16.1282V5.88417Z" fill="#DDDFFF"/>
<path d="M37.2071 10.904H35.1028L34.8134 11.8959H32.9202L35.1752 5.88417H37.195L39.444 11.8959H37.5086L37.2071 10.904ZM36.8212 9.60368L36.158 7.4385L35.5068 9.60368H36.8212Z" fill="#DDDFFF"/>
<path d="M33.2819 8.89001C33.2815 9.74901 33.0557 10.5928 32.6272 11.3365C32.1987 12.0802 31.5825 12.6976 30.8406 13.1267C30.0987 13.5558 29.2573 13.7814 28.401 13.7809C27.5446 13.7803 26.7035 13.5536 25.9621 13.1236C24.8634 12.464 24.0674 11.3975 23.7457 10.1543C23.4241 8.91107 23.6027 7.59086 24.243 6.47859C24.8833 5.36632 25.934 4.55121 27.1682 4.20917C28.4024 3.86713 29.7212 4.0256 30.8399 4.65037C31.5803 5.08196 32.1952 5.70034 32.6236 6.44408C33.052 7.18783 33.2789 8.03106 33.2819 8.89001ZM32.3352 8.89001C32.3352 7.80137 31.9514 6.86998 31.1836 6.09584C30.4159 5.3217 29.4873 4.93664 28.398 4.94068C27.8807 4.93284 27.3672 5.03129 26.8892 5.22995C26.4111 5.42861 25.9787 5.72328 25.6185 6.09584C24.8467 6.86998 24.4608 7.80137 24.4608 8.89001C24.4656 9.93597 24.8819 10.9377 25.6192 11.6773C26.3566 12.4169 27.3553 12.8346 28.398 12.8393C29.4833 12.8393 30.4119 12.4523 31.1836 11.6781C31.555 11.3168 31.8488 10.883 32.0469 10.4035C32.2449 9.92403 32.3431 9.40896 32.3352 8.89001ZM29.5376 9.49481L30.852 9.80326C30.6872 10.3234 30.4641 10.7225 30.1827 11.0008C29.7366 11.4302 29.1517 11.6479 28.4342 11.6479C27.7167 11.6479 27.0113 11.3939 26.5168 10.8858C26.0224 10.3778 25.7752 9.71253 25.7752 8.87791C25.7752 8.04329 26.0285 7.43245 26.5349 6.91837C27.0414 6.40429 27.6745 6.14423 28.4402 6.14423C29.0552 6.14423 29.5738 6.30752 29.9958 6.64016C30.4078 6.95462 30.6926 7.40783 30.7977 7.91628L29.5376 8.10982C29.4592 7.75904 29.3205 7.50502 29.1155 7.33568C28.9092 7.16423 28.6477 7.07394 28.3799 7.08166C28.0483 7.08166 27.771 7.22681 27.5418 7.50502C27.3127 7.78323 27.2042 8.23683 27.2042 8.84163C27.2042 9.44642 27.2826 9.89397 27.4333 10.154C27.6624 10.529 27.982 10.7165 28.392 10.7165C28.6542 10.716 28.9055 10.6116 29.0914 10.4262C29.2964 10.2327 29.4471 9.92421 29.5376 9.49481Z" fill="#DDDFFF"/>
</svg>
