<svg width="39" height="10" viewBox="0 0 39 10" fill="none" xmlns="http://www.w3.org/2000/svg">
<path d="M9.16394 2.2915L8.4751 2.94409C7.97961 2.45667 7.43579 2.08807 6.84363 1.83832C6.25549 1.58453 5.68146 1.45764 5.12152 1.45764C4.42462 1.45764 3.75995 1.62885 3.1275 1.97125C2.49908 2.31366 2.01166 2.77893 1.66522 3.36707C1.31879 3.95117 1.14557 4.56952 1.14557 5.22211C1.14557 5.89081 1.32483 6.52728 1.68335 7.13153C2.04187 7.73175 2.53735 8.20508 3.1698 8.55151C3.80225 8.89392 4.49512 9.06512 5.24841 9.06512C6.16284 9.06512 6.93628 8.80731 7.56873 8.29169C8.20117 7.77606 8.57581 7.10736 8.69263 6.28558H5.8587V5.42755H9.68964C9.68158 6.80121 9.27271 7.89288 8.46301 8.70258C7.65735 9.50824 6.57776 9.91107 5.22424 9.91107C3.58069 9.91107 2.27954 9.35114 1.3208 8.23126C0.583618 7.3692 0.215027 6.37219 0.215027 5.24023C0.215027 4.39832 0.426514 3.61481 0.849487 2.88971C1.27246 2.16461 1.85254 1.59863 2.58972 1.19177C3.3269 0.780884 4.16077 0.575439 5.09131 0.575439C5.8446 0.575439 6.55359 0.712402 7.21826 0.986328C7.88293 1.25623 8.53149 1.69128 9.16394 2.2915ZM11.3755 0.799011H13.1459C14.1611 0.799011 14.8459 0.843323 15.2004 0.931946C15.7079 1.05682 16.1229 1.31464 16.4451 1.70538C16.7674 2.0921 16.9285 2.57953 16.9285 3.16766C16.9285 3.75983 16.7714 4.24927 16.4572 4.63599C16.143 5.01868 15.71 5.27649 15.1581 5.40942C14.7552 5.5061 14.002 5.55444 12.8982 5.55444H12.2637V9.6875H11.3755V0.799011ZM12.2637 1.66309V4.68433L13.7683 4.70245C14.3766 4.70245 14.8217 4.64807 15.1037 4.53931C15.3857 4.42651 15.6072 4.24725 15.7684 4.00153C15.9295 3.75177 16.0101 3.47382 16.0101 3.16766C16.0101 2.86957 15.9295 2.59766 15.7684 2.35193C15.6072 2.10217 15.3937 1.92493 15.1279 1.82019C14.866 1.71545 14.435 1.66309 13.8348 1.66309H12.2637ZM18.2035 0.799011H19.1159L20.9226 7.20404L23.4725 0.799011H23.6538L26.1735 7.20404L28.0165 0.799011H28.9229L26.3729 9.6875H26.2037L23.5692 2.96222L20.8803 9.6875H20.7111L18.2035 0.799011ZM34.2161 0.799011L38.3612 9.6875H37.4065L36.0107 6.76294H32.1797L30.79 9.6875H29.799L33.9985 0.799011H34.2161ZM34.1073 2.68427L32.5786 5.90491H35.6179L34.1073 2.68427Z" fill="#DDDFFF"/>
</svg>
