<svg width="25" height="19" viewBox="0 0 25 19" fill="none" xmlns="http://www.w3.org/2000/svg">
<g clip-path="url(#clip0_2967_102)">
<path d="M14.5625 0.87146H4.4375C2.26288 0.87146 0.5 2.63434 0.5 4.80896V14.934C0.5 17.1086 2.26288 18.8715 4.4375 18.8715H14.5625C16.7371 18.8715 18.5 17.1086 18.5 14.934V4.80896C18.5 2.63434 16.7371 0.87146 14.5625 0.87146Z" fill="#41479B"/>
<path d="M3.81575 0.920532C2.88837 1.06763 2.06887 1.53844 1.47656 2.21365L3.81575 3.74622V0.920532Z" fill="#41479B"/>
<path d="M0.746861 3.43433C0.657178 3.67504 0.590346 3.9269 0.549072 4.18727H1.89608L0.746861 3.43433Z" fill="#41479B"/>
<path d="M0.5 6.55566V7.47032L1.89605 6.55566H0.5Z" fill="#41479B"/>
<path d="M9.49989 1.57378V0.87146H6.18408V3.74619L9.49989 1.57378Z" fill="#41479B"/>
<path d="M9.50005 7.47032V6.55566H8.104L9.50005 7.47032Z" fill="#41479B"/>
<path d="M6.18408 9.87143H9.49989V9.16911L6.18408 6.9967V9.87143Z" fill="#41479B"/>
<path d="M9.50005 4.18724V3.27258L8.104 4.18724H9.50005Z" fill="#41479B"/>
<path d="M3.8158 6.9967L0.5 9.16911V9.87143H3.8158V6.9967Z" fill="#41479B"/>
<path d="M5.71045 9.87146H6.18414V6.99674L9.49994 9.16915V8.46729L6.55497 6.55567H7.42502L9.49994 7.90254V7.47033L8.10389 6.55567H9.49994V6.08197H5.71045V9.87146Z" fill="#F5F5F5"/>
<path d="M3.8158 9.87146H4.28946V6.08197H0.5V6.55567H1.89605L0.5 7.47033V8.13481L2.93271 6.55567H3.80275L0.5 8.69956V9.16915L3.8158 6.99674V9.87146Z" fill="#F5F5F5"/>
<path d="M4.29006 0.875183C4.12954 0.881125 3.97144 0.896558 3.81637 0.921167V3.74685L1.47721 2.21428C1.33641 2.37481 1.20851 2.54686 1.09499 2.72887L3.34271 4.18792H2.47266L0.868373 3.14652C0.824393 3.24074 0.783998 3.33689 0.747436 3.43498L1.89666 4.18792H0.549646C0.525037 4.343 0.509604 4.50106 0.503662 4.66162H4.2901L4.29006 0.875183Z" fill="#F5F5F5"/>
<path d="M9.49994 4.66095V4.18726H8.10389L9.49994 3.2726V2.59964L7.05419 4.18726H6.18414L9.49994 2.03489V1.57378L6.18414 3.74619V0.87146H5.71045V4.66095H9.49994Z" fill="#F5F5F5"/>
<path d="M4.28946 9.87146H5.71051V6.08197H9.5V4.66095H5.71051V0.87146H4.4375C4.38793 0.87146 4.33861 0.87269 4.28946 0.874519V4.66095H0.503059C0.50123 4.7101 0.5 4.75935 0.5 4.80896V6.08197H4.28946V9.87146Z" fill="#FF4B55"/>
<path d="M2.93271 6.55566L0.5 8.13481V8.69956L3.80275 6.55566H2.93271Z" fill="#FF4B55"/>
<path d="M6.55518 6.55566L9.50015 8.46729V7.90254L7.42522 6.55566H6.55518Z" fill="#FF4B55"/>
<path d="M3.34204 4.18727L1.09433 2.72821C1.01073 2.86226 0.934965 3.00166 0.867676 3.14587L2.472 4.18727H3.34204Z" fill="#FF4B55"/>
<path d="M7.05413 4.18728L9.49989 2.59966V2.03491L6.18408 4.18728H7.05413Z" fill="#FF4B55"/>
<path d="M14.4072 16.3835C14.3946 16.3835 14.3819 16.3796 14.3711 16.372L14.0038 16.1095L13.6365 16.372C13.6258 16.3796 13.613 16.3835 13.6004 16.3835C13.5876 16.3835 13.5748 16.3796 13.5639 16.3717C13.5424 16.356 13.5331 16.3281 13.5412 16.3026L13.6774 15.8723L13.3143 15.6044C13.2928 15.5883 13.2839 15.5607 13.292 15.5353C13.3004 15.5098 13.3239 15.4925 13.3507 15.4922L13.8021 15.4886L13.9449 15.0604C13.9533 15.0352 13.9771 15.0179 14.0038 15.0179C14.0305 15.0179 14.0543 15.0352 14.0628 15.0604L14.2055 15.4886L14.657 15.4922C14.6838 15.4926 14.7073 15.5098 14.7156 15.5353C14.7238 15.5607 14.7148 15.5883 14.6933 15.6044L14.3302 15.8723L14.4664 16.3026C14.4745 16.3281 14.4652 16.356 14.4437 16.3717C14.4328 16.3796 14.4199 16.3835 14.4072 16.3835Z" fill="#FF4B55"/>
<path d="M14.0038 15.0799L14.1607 15.5503L14.6565 15.5541L14.2576 15.8486L14.4072 16.3213L14.0038 16.033L13.6005 16.3213L13.75 15.8486L13.3512 15.5541L13.847 15.5503L14.0038 15.0799ZM14.0038 14.9558C13.9504 14.9558 13.903 14.99 13.8861 15.0407L13.7573 15.4268L13.3502 15.43C13.2968 15.4304 13.2497 15.4649 13.2331 15.5158C13.2166 15.5666 13.2345 15.6223 13.2775 15.654L13.6049 15.8958L13.4822 16.2839C13.4661 16.3348 13.4843 16.3904 13.5275 16.4218C13.5493 16.4375 13.5749 16.4455 13.6005 16.4455C13.6258 16.4455 13.6511 16.4378 13.6727 16.4224L14.0039 16.1856L14.335 16.4224C14.3566 16.4378 14.3819 16.4455 14.4072 16.4455C14.4328 16.4455 14.4584 16.4376 14.4802 16.4218C14.5234 16.3904 14.5417 16.3348 14.5256 16.2839L14.4028 15.8958L14.7303 15.654C14.7733 15.6223 14.7911 15.5666 14.7746 15.5158C14.7581 15.4649 14.7109 15.4304 14.6575 15.43L14.2505 15.4268L14.1217 15.0407C14.1047 14.99 14.0573 14.9558 14.0038 14.9558Z" fill="#F5F5F5"/>
<path d="M14.4072 10.2795C14.3945 10.2795 14.3819 10.2756 14.3711 10.268L14.0038 10.0052L13.6365 10.268C13.6258 10.2756 13.613 10.2795 13.6004 10.2795C13.5877 10.2795 13.5748 10.2756 13.5639 10.2677C13.5424 10.2519 13.5331 10.224 13.5412 10.1986L13.6774 9.76821L13.3143 9.5C13.2928 9.48394 13.2839 9.45606 13.292 9.43092C13.3004 9.40547 13.324 9.38821 13.3507 9.38789L13.8021 9.38455L13.9449 8.95631C13.9533 8.93118 13.9771 8.91388 14.0038 8.91388C14.0305 8.91388 14.0543 8.93114 14.0628 8.95631L14.2055 9.38455L14.657 9.38789C14.6836 9.38821 14.7073 9.40547 14.7156 9.43092C14.7238 9.45606 14.7148 9.48397 14.6933 9.5L14.3302 9.76821L14.4664 10.1986C14.4745 10.224 14.4652 10.2519 14.4437 10.2677C14.4328 10.2756 14.4199 10.2795 14.4072 10.2795Z" fill="#FF4B55"/>
<path d="M14.0038 8.97588L14.1607 9.4462L14.6565 9.45004L14.2576 9.74454L14.4072 10.2173L14.0038 9.92897L13.6005 10.2173L13.75 9.74454L13.3512 9.45004L13.847 9.4462L14.0038 8.97588ZM14.0038 8.85175C13.9504 8.85175 13.903 8.88595 13.8861 8.93661L13.7573 9.32277L13.3502 9.32593C13.2968 9.32632 13.2497 9.36088 13.2331 9.41172C13.2166 9.46252 13.2345 9.5182 13.2775 9.54995L13.6049 9.79175L13.4822 10.1798C13.4661 10.2308 13.4843 10.2863 13.5275 10.3177C13.5493 10.3335 13.5749 10.3414 13.6005 10.3414C13.6258 10.3414 13.6511 10.3337 13.6727 10.3183L14.0039 10.0816L14.335 10.3183C14.3566 10.3337 14.3819 10.3414 14.4072 10.3414C14.4328 10.3414 14.4584 10.3335 14.4802 10.3177C14.5234 10.2863 14.5417 10.2308 14.5256 10.1798L14.4028 9.79175L14.7303 9.54995C14.7733 9.51824 14.7911 9.46252 14.7746 9.41172C14.7581 9.36088 14.7109 9.32636 14.6575 9.32593L14.2505 9.32277L14.1217 8.93661C14.1047 8.88592 14.0573 8.85175 14.0038 8.85175Z" fill="#F5F5F5"/>
<path d="M16.5798 12.5695C16.5671 12.5695 16.5545 12.5656 16.5438 12.558L16.1765 12.2952L15.8091 12.558C15.7984 12.5656 15.7857 12.5695 15.7731 12.5695C15.7604 12.5695 15.7475 12.5656 15.7366 12.5577C15.715 12.5419 15.7058 12.5141 15.7138 12.4886L15.85 12.0582L15.4869 11.79C15.4654 11.774 15.4565 11.7461 15.4647 11.7209C15.473 11.6954 15.4966 11.6782 15.5233 11.6779L15.9747 11.6745L16.1175 11.2463C16.1259 11.2212 16.1497 11.2039 16.1764 11.2039C16.2031 11.2039 16.2269 11.2211 16.2354 11.2463L16.3781 11.6745L16.8296 11.6779C16.8562 11.6782 16.8799 11.6954 16.8882 11.7209C16.8964 11.7461 16.8875 11.774 16.8659 11.79L16.5028 12.0582L16.639 12.4886C16.6471 12.514 16.6378 12.5419 16.6163 12.5577C16.6055 12.5656 16.5926 12.5695 16.5798 12.5695Z" fill="#FF4B55"/>
<path d="M16.1764 11.2659L16.3333 11.7362L16.8291 11.7401L16.4303 12.0346L16.5798 12.5073L16.1765 12.219L15.7731 12.5073L15.9227 12.0346L15.5239 11.7401L16.0196 11.7362L16.1764 11.2659ZM16.1764 11.1418C16.123 11.1418 16.0756 11.176 16.0587 11.2267L15.9299 11.6128L15.5229 11.616C15.4694 11.6164 15.4223 11.6509 15.4057 11.7018C15.3892 11.7526 15.4071 11.8082 15.4501 11.84L15.7775 12.0818L15.6548 12.4699C15.6387 12.5208 15.6569 12.5764 15.7001 12.6078C15.7219 12.6236 15.7475 12.6315 15.7731 12.6315C15.7984 12.6315 15.8237 12.6238 15.8453 12.6084L16.1765 12.3717L16.5077 12.6084C16.5292 12.6238 16.5546 12.6315 16.5798 12.6315C16.6055 12.6315 16.6311 12.6236 16.6528 12.6078C16.696 12.5764 16.7143 12.5208 16.6982 12.4699L16.5754 12.0818L16.9029 11.84C16.9458 11.8083 16.9637 11.7526 16.9472 11.7018C16.9307 11.651 16.8835 11.6164 16.8301 11.616L16.4231 11.6128L16.2943 11.2267C16.2773 11.176 16.2299 11.1418 16.1764 11.1418Z" fill="#F5F5F5"/>
<path d="M12.2349 13.1902C12.2221 13.1902 12.2096 13.1863 12.1988 13.1787L11.8315 12.9159L11.4642 13.1787C11.4534 13.1863 11.4407 13.1902 11.4281 13.1902C11.4154 13.1902 11.4025 13.1863 11.3916 13.1784C11.3701 13.1626 11.3608 13.1348 11.3688 13.1093L11.5051 12.6789L11.142 12.4107C11.1205 12.3946 11.1115 12.3668 11.1197 12.3416C11.128 12.3162 11.1517 12.2989 11.1783 12.2986L11.6297 12.2953L11.7725 11.867C11.7809 11.8418 11.8047 11.8246 11.8314 11.8246C11.8581 11.8246 11.8819 11.8418 11.8904 11.867L12.0331 12.2953L12.4845 12.2986C12.5112 12.2989 12.5348 12.3162 12.5432 12.3416C12.5514 12.3668 12.5424 12.3947 12.5209 12.4107L12.1578 12.6789L12.294 13.1093C12.302 13.1347 12.2928 13.1626 12.2713 13.1784C12.2605 13.1863 12.2476 13.1902 12.2349 13.1902Z" fill="#FF4B55"/>
<path d="M11.8315 11.8866L11.9883 12.3569L12.4841 12.3607L12.0853 12.6552L12.2348 13.128L11.8315 12.8397L11.4281 13.128L11.5777 12.6552L11.1788 12.3607L11.6746 12.3569L11.8315 11.8866ZM11.8315 11.7625C11.778 11.7625 11.7306 11.7967 11.7137 11.8473L11.5849 12.2335L11.1779 12.2366C11.1244 12.237 11.0773 12.2716 11.0608 12.3224C11.0443 12.3732 11.0621 12.4289 11.1051 12.4607L11.4326 12.7025L11.3098 13.0906C11.2937 13.1415 11.3119 13.197 11.3551 13.2284C11.3769 13.2442 11.4025 13.2521 11.4281 13.2521C11.4534 13.2521 11.4787 13.2444 11.5003 13.229L11.8315 12.9923L12.1626 13.229C12.1842 13.2444 12.2095 13.2521 12.2348 13.2521C12.2604 13.2521 12.286 13.2442 12.3078 13.2284C12.351 13.197 12.3693 13.1415 12.3532 13.0906L12.2304 12.7025L12.5579 12.4607C12.6009 12.4289 12.6187 12.3732 12.6022 12.3224C12.5857 12.2716 12.5385 12.2371 12.4851 12.2366L12.0781 12.2335L11.9493 11.8473C11.9323 11.7966 11.8849 11.7625 11.8315 11.7625Z" fill="#F5F5F5"/>
</g>
<path d="M24.2832 1.39817L23.2303 0.345283C23.086 0.200806 22.9104 0.12854 22.704 0.12854C22.4974 0.12854 22.3219 0.200806 22.1775 0.345283L17.0987 5.43174L14.8226 3.14784C14.678 3.00331 14.5026 2.93112 14.2962 2.93112C14.0897 2.93112 13.9142 3.00331 13.7697 3.14784L12.7168 4.20075C12.5722 4.34526 12.5 4.52078 12.5 4.72728C12.5 4.93361 12.5722 5.10929 12.7168 5.25377L15.5193 8.05625L16.5723 9.10913C16.7167 9.25372 16.8922 9.3259 17.0987 9.3259C17.3051 9.3259 17.4806 9.25353 17.6252 9.10913L18.6781 8.05625L24.2832 2.45113C24.4276 2.3066 24.5 2.1311 24.5 1.92461C24.5001 1.71823 24.4276 1.5427 24.2832 1.39817Z" fill="#3B9B24"/>
<defs>
<clipPath id="clip0_2967_102">
<rect width="18" height="18" fill="white" transform="translate(0.5 0.87146)"/>
</clipPath>
</defs>
</svg>
