<svg width="16" height="15" viewBox="0 0 16 15" fill="none" xmlns="http://www.w3.org/2000/svg">
<path d="M7.45264 0.725514C7.79972 -0.0804496 8.94246 -0.0804474 9.28955 0.725516L10.6798 3.95376C10.8245 4.28994 11.1414 4.52016 11.5059 4.55396L15.0057 4.87856C15.8795 4.9596 16.2326 6.04641 15.5734 6.62556L12.9327 8.94533C12.6577 9.1869 12.5367 9.5594 12.6172 9.91647L13.39 13.3453C13.5829 14.2014 12.6584 14.8731 11.9039 14.425L8.88165 12.6305C8.56693 12.4436 8.17526 12.4436 7.86053 12.6305L4.8383 14.425C4.08377 14.8731 3.15928 14.2014 3.35221 13.3453L4.12501 9.91647C4.20549 9.5594 4.08445 9.1869 3.80947 8.94533L1.16883 6.62556C0.509567 6.04641 0.862695 4.9596 1.73647 4.87856L5.23631 4.55396C5.60077 4.52016 5.91764 4.28994 6.06241 3.95376L7.45264 0.725514Z" fill="url(#paint0_linear_2362_14)"/>
<defs>
<linearGradient id="paint0_linear_2362_14" x1="8" y1="12.5" x2="9" y2="3.5" gradientUnits="userSpaceOnUse">
<stop stop-color="#D19232"/>
<stop offset="1" stop-color="#FFCA42"/>
</linearGradient>
</defs>
</svg>
